<svg width="32" height="32" viewBox="0 0 32 32" fill="none" xmlns="http://www.w3.org/2000/svg">
<rect width="32" height="32" fill="url(#paint0_linear_415_141)"/>
<path d="M30.8889 16.8625L25.1222 6L21.3556 6.6125L27.4445 16.7125L20.9778 25.2125L24.7445 25.7875L30.8889 16.8625Z" fill="white"/>
<path d="M18.1111 14.425V17.9125L18.6222 16.725L21.0222 15.9125L23.4 12.5625L18.1111 14.425Z" fill="white"/>
<path d="M0.888916 16.8625L6.65558 6L10.4222 6.6125L4.33336 16.7125L10.8 25.2125L7.03336 25.7875L0.888916 16.8625Z" fill="white"/>
<path d="M13.6666 14.425V17.9125L13.1555 16.725L10.7555 15.9125L8.37775 12.5625L13.6666 14.425Z" fill="white"/>
<path d="M12.4 22.5125L13.1666 25.3125L15.8889 26.675L18.6111 25.3125L19.3777 22.5125H12.4Z" fill="white"/>
<defs>
<linearGradient id="paint0_linear_415_141" x1="16" y1="0" x2="16" y2="32" gradientUnits="userSpaceOnUse">
<stop stop-color="#5F3DC4"/>
<stop offset="1" stop-color="#862E9C"/>
</linearGradient>
</defs>
</svg>
