<svg width="72" height="28" viewBox="0 0 72 28" fill="none" xmlns="http://www.w3.org/2000/svg">
<g clip-path="url(#clip0_262_35)">
<path d="M38.8667 6.1358C46.3161 6.1358 49.8939 12.0296 49.8939 17.0823C49.8939 22.135 46.3161 28.0288 38.8667 28.0288C31.4174 28.0288 27.8338 22.1407 27.8338 17.0823C27.8338 12.0239 31.4116 6.1358 38.8667 6.1358V6.1358ZM38.8667 22.2675C39.531 22.2549 40.1861 22.1102 40.7937 21.8416C41.4014 21.573 41.9494 21.1861 42.4059 20.7034C42.8623 20.2206 43.218 19.6518 43.4522 19.0301C43.6863 18.4084 43.7942 17.7462 43.7696 17.0823C43.8266 16.4046 43.7423 15.7225 43.5221 15.0791C43.3019 14.4356 42.9505 13.8449 42.4902 13.3443C42.0299 12.8436 41.4707 12.444 40.848 12.1706C40.2253 11.8973 39.5526 11.7561 38.8725 11.7561C38.1924 11.7561 37.5198 11.8973 36.897 12.1706C36.2743 12.444 35.7151 12.8436 35.2548 13.3443C34.7945 13.8449 34.4432 14.4356 34.2229 15.0791C34.0027 15.7225 33.9184 16.4046 33.9754 17.0823C33.9516 17.7465 34.0602 18.4088 34.295 19.0305C34.5298 19.6523 34.886 20.2211 35.3429 20.7037C35.7998 21.1864 36.3483 21.5732 36.9562 21.8417C37.5642 22.1102 38.2195 22.2549 38.884 22.2675H38.8667ZM53.3565 0H59.5672V27.4296H53.3565V0ZM66.982 19.3695C66.1661 19.3695 65.3686 19.6115 64.6902 20.0648C64.0118 20.518 63.4831 21.1623 63.1709 21.916C62.8587 22.6698 62.777 23.4992 62.9361 24.2994C63.0953 25.0996 63.4882 25.8346 64.0651 26.4115C64.642 26.9884 65.377 27.3813 66.1772 27.5405C66.9774 27.6997 67.8068 27.618 68.5606 27.3057C69.3144 26.9935 69.9586 26.4648 70.4119 25.7864C70.8652 25.1081 71.1071 24.3105 71.1071 23.4947C71.1056 22.4011 70.6705 21.3527 69.8972 20.5794C69.1239 19.8062 68.0756 19.3711 66.982 19.3695V19.3695ZM16.6396 0H11.1145L0.312012 27.4296H7.63465L9.08074 23.4658H18.6042L19.9408 27.4296H27.3326L16.6396 0ZM11.005 17.9004L13.8857 8.33663L16.7663 17.9004H11.005Z" fill="#E2E8F0"/>
</g>
<defs>
<clipPath id="clip0_262_35">
<rect width="70.7951" height="28" fill="white" transform="translate(0.312012)"/>
</clipPath>
</defs>
</svg>
