<?xml version="1.0" encoding="UTF-8"?>
<svg width="36px" height="36px" viewBox="0 0 36 36" version="1.1" xmlns="http://www.w3.org/2000/svg" xmlns:xlink="http://www.w3.org/1999/xlink">
  <title>Codespace</title>
  <desc>Created by Wouter de Bres</desc>
  <defs></defs>
  <g id="codespace-logo" stroke="none" stroke-width="1" fill="none" fill-rule="evenodd" fill-opacity="0.18">
      <path d="M33.6097504,9.01965771 L26.1799688,12.5537284 C23.5349308,8.58747585 18.3191773,7.03635405 13.8649837,9.11297846 C9.35407399,11.216045 7.19188339,16.3089692 8.63818385,20.931223 C5.11630912,22.902115 2.95382707,24.4380977 3.18177743,24.9268447 C3.54336257,25.7021171 9.79008655,23.5644796 17.4042362,20.0947705 L17.2001564,19.741362 C17.1639835,19.6787209 17.1541811,19.6042785 17.1729056,19.5344114 L17.2142625,19.3800951 C17.2329869,19.310228 17.2231845,19.2357856 17.1870116,19.1731445 L16.7661415,18.4443165 C16.6318889,18.2118289 16.7115604,17.9145483 16.9440927,17.7803215 C17.0330757,17.7289571 17.1360476,17.7070996 17.2382283,17.7178865 L19.7138333,17.9792286 C19.8858271,17.9973855 20.0591526,17.9605944 20.2089316,17.8741361 L20.9414138,17.4513184 C21.094303,17.3630648 21.2604665,17.3001239 21.4334639,17.2649353 C22.1888621,17.1112831 22.6277083,17.1403465 22.7500025,17.3521255 C22.8722985,17.5639076 22.678033,17.9584108 22.1672059,18.535635 C22.0502395,18.6678063 21.9126575,18.7801889 21.759792,18.8684289 L21.0272711,19.2912685 C20.8774921,19.3777268 20.7589612,19.5094066 20.6886916,19.6674074 L19.6772616,21.9416022 C19.5681679,22.1868988 19.2808394,22.2973301 19.0354956,22.1882574 C18.94161,22.1465186 18.8633646,22.0761135 18.8119902,21.9871477 L18.39112,21.2583196 C18.3549472,21.1956785 18.295367,21.1499698 18.2254864,21.1312489 L18.0711404,21.0899 C18.0012598,21.0711792 17.9416796,21.0254705 17.9055068,20.9628293 L17.7375806,20.6720288 C16.4588092,21.6643668 14.0163301,23.1247748 10.8880192,24.7694491 C13.7150845,27.7505016 18.2364306,28.7412621 22.1652687,26.9095677 C23.8619391,26.1185498 25.2263344,24.9045543 26.1914211,23.451719 L33.6097504,26.9803423 C30.499674,32.3713934 24.6754061,36 18.0034684,36 C8.06042738,36 0,27.9411255 0,18 C0,8.0588745 8.06042738,0 18.0034684,0 C24.6754061,0 30.499674,3.62860662 33.6097504,9.01965771 Z" id="Codespace" fill="#0F1F2C"></path>
  </g>
</svg>
