<svg width="32" height="32" viewBox="0 0 32 32" fill="none" xmlns="http://www.w3.org/2000/svg">
  <style>
    @media (prefers-color-scheme: dark) {
      * {
      fill: #ffe066;
      }
    }
  </style>
<path d="M32 16.9792L25.5998 6L21.4193 6.61908L28.1771 16.8275L21 25.4188L25.1805 26L32 16.9792Z" fill="#9C36B5"/>
<path d="M0 16.9792L6.40022 6L10.5807 6.61908L3.82287 16.8275L11 25.4188L6.81951 26L0 16.9792Z" fill="#9C36B5"/>
<path d="M17 14.4369V19L17.6765 17.4463L20.8529 16.3832L24 12L17 14.4369Z" fill="#9C36B5"/>
<path d="M15 14.4369V19L14.3235 17.4463L11.1471 16.3832L8 12L15 14.4369Z" fill="#9C36B5"/>
<path d="M12 22L12.9209 25.3634L16.1909 27L19.4608 25.3634L20.3817 22H12Z" fill="#9C36B5"/>
</svg>
