<svg width="16" height="16" viewBox="0 0 16 16" fill="none" xmlns="http://www.w3.org/2000/svg">
<path d="M8 12C10.2091 12 12 10.2091 12 8C12 5.79086 10.2091 4 8 4C5.79086 4 4 5.79086 4 8C4 10.2091 5.79086 12 8 12Z" fill="#FFE066"/>
<path d="M15.2 8.80001H14.4C14.1878 8.80001 13.9843 8.71573 13.8343 8.5657C13.6843 8.41567 13.6 8.21219 13.6 8.00001C13.6 7.78784 13.6843 7.58436 13.8343 7.43433C13.9843 7.2843 14.1878 7.20001 14.4 7.20001H15.2C15.4122 7.20001 15.6157 7.2843 15.7657 7.43433C15.9157 7.58436 16 7.78784 16 8.00001C16 8.21219 15.9157 8.41567 15.7657 8.5657C15.6157 8.71573 15.4122 8.80001 15.2 8.80001Z" fill="#FFE066"/>
<path d="M1.6 8.80001H0.8C0.587827 8.80001 0.384344 8.71573 0.234315 8.5657C0.0842854 8.41567 0 8.21219 0 8.00001C0 7.78784 0.0842854 7.58436 0.234315 7.43433C0.384344 7.2843 0.587827 7.20001 0.8 7.20001H1.6C1.81217 7.20001 2.01566 7.2843 2.16569 7.43433C2.31571 7.58436 2.4 7.78784 2.4 8.00001C2.4 8.21219 2.31571 8.41567 2.16569 8.5657C2.01566 8.71573 1.81217 8.80001 1.6 8.80001Z" fill="#FFE066"/>
<path d="M12.528 4.272C12.3293 4.263 12.141 4.18029 12 4.04C11.851 3.89011 11.7674 3.68735 11.7674 3.476C11.7674 3.26465 11.851 3.06189 12 2.912L12.568 2.344C12.6397 2.26025 12.728 2.19223 12.8272 2.14422C12.9265 2.0962 13.0346 2.06921 13.1448 2.06496C13.2549 2.0607 13.3648 2.07927 13.4675 2.11949C13.5701 2.15971 13.6634 2.22071 13.7413 2.29868C13.8193 2.37664 13.8803 2.46988 13.9205 2.57254C13.9607 2.6752 13.9793 2.78506 13.975 2.89524C13.9708 3.00541 13.9438 3.11352 13.8958 3.21277C13.8478 3.31202 13.7797 3.40028 13.696 3.472L13.128 4.04C13.0495 4.11809 12.9556 4.17903 12.8523 4.21896C12.7491 4.2589 12.6386 4.27696 12.528 4.272V4.272Z" fill="#FFE066"/>
<path d="M2.91199 13.888C2.80671 13.8886 2.70234 13.8684 2.60487 13.8286C2.5074 13.7888 2.41874 13.7302 2.34399 13.656C2.19499 13.5061 2.11136 13.3034 2.11136 13.092C2.11136 12.8807 2.19499 12.6779 2.34399 12.528L2.91199 12C3.06503 11.869 3.26189 11.8005 3.46324 11.8082C3.66458 11.816 3.85557 11.8995 3.99804 12.042C4.14052 12.1844 4.22399 12.3754 4.23176 12.5768C4.23954 12.7781 4.17105 12.975 4.03999 13.128L3.47199 13.696C3.31674 13.8293 3.11634 13.898 2.91199 13.888V13.888Z" fill="#FFE066"/>
<path d="M8.00001 2.4C7.78784 2.4 7.58436 2.31571 7.43433 2.16569C7.2843 2.01566 7.20001 1.81217 7.20001 1.6V0.8C7.20001 0.587827 7.2843 0.384344 7.43433 0.234315C7.58436 0.0842854 7.78784 0 8.00001 0C8.21219 0 8.41567 0.0842854 8.5657 0.234315C8.71573 0.384344 8.80001 0.587827 8.80001 0.8V1.6C8.80001 1.81217 8.71573 2.01566 8.5657 2.16569C8.41567 2.31571 8.21219 2.4 8.00001 2.4Z" fill="#FFE066"/>
<path d="M8.00001 16C7.78784 16 7.58436 15.9157 7.43433 15.7657C7.2843 15.6157 7.20001 15.4122 7.20001 15.2V14.4C7.20001 14.1878 7.2843 13.9843 7.43433 13.8343C7.58436 13.6843 7.78784 13.6 8.00001 13.6C8.21219 13.6 8.41567 13.6843 8.5657 13.8343C8.71573 13.9843 8.80001 14.1878 8.80001 14.4V15.2C8.80001 15.4122 8.71573 15.6157 8.5657 15.7657C8.41567 15.9157 8.21219 16 8.00001 16Z" fill="#FFE066"/>
<path d="M3.47201 4.27201C3.26214 4.27112 3.06102 4.1878 2.91201 4.04001L2.34401 3.47201C2.21295 3.31897 2.14446 3.12211 2.15224 2.92076C2.16002 2.71942 2.24348 2.52843 2.38596 2.38596C2.52843 2.24348 2.71942 2.16002 2.92076 2.15224C3.12211 2.14446 3.31897 2.21295 3.47201 2.34401L4.04001 2.91201C4.18901 3.0619 4.27264 3.26466 4.27264 3.47601C4.27264 3.68736 4.18901 3.89012 4.04001 4.04001C3.96526 4.11415 3.8766 4.17281 3.77913 4.21262C3.68166 4.25244 3.57729 4.27262 3.47201 4.27201Z" fill="#FFE066"/>
<path d="M13.088 13.888C12.8781 13.8871 12.677 13.8038 12.528 13.656L12 13.088C11.9154 12.936 11.8827 12.7606 11.9068 12.5884C11.9309 12.4161 12.0104 12.2564 12.1334 12.1334C12.2564 12.0104 12.4161 11.9309 12.5884 11.9068C12.7606 11.8827 12.936 11.9154 13.088 12L13.656 12.568C13.805 12.7179 13.8886 12.9206 13.8886 13.132C13.8886 13.3433 13.805 13.5461 13.656 13.696C13.4987 13.8312 13.295 13.9 13.088 13.888Z" fill="#FFE066"/>
</svg>
