<svg width="149" height="94" viewBox="0 0 149 94" fill="none" xmlns="http://www.w3.org/2000/svg">
<path d="M111.8 45.075L98.825 23.35L90.35 24.575L104.05 44.775L89.5 61.775L97.975 62.925L111.8 45.075Z" fill="black"/>
<path d="M79.05 40.2V47.175L80.2001 44.8L85.6001 43.175L90.9501 36.475L79.05 40.2Z" fill="black"/>
<path d="M125.825 36.075L117.575 23.25L103.025 16L104.875 0L77.675 17.075L87.05 18.2L85.8 16.025L98.7251 8.575L91.8501 21.7L100.6 21.175L115.225 45.125L105.95 57.175L126.05 60.8C131.775 61.65 137.5 59.225 140.9 54.55L148.125 44.6L125.825 36.075ZM110.075 31.25L107.75 25.925L114.525 28.525L117.975 34.65L110.075 31.25Z" fill="black"/>
<path d="M36.3 45.075L49.275 23.35L57.75 24.575L44.05 44.775L58.6 61.775L50.125 62.925L36.3 45.075Z" fill="black"/>
<path d="M69.05 40.2V47.175L67.9 44.8L62.5 43.175L57.15 36.475L69.05 40.2Z" fill="black"/>
<path d="M0 44.625L7.225 54.575C10.625 59.25 16.35 61.675 22.075 60.825L42.175 57.2L32.9 45.15L47.525 21.2L56.275 21.725L49.4 8.59999L62.3 16.05L61.05 18.225L70.425 17.1L43.225 0.0249939L45.075 16.025L30.525 23.275L22.275 36.1L0 44.625ZM30.1 34.65L33.55 28.525L40.325 25.925L38 31.25L30.1 34.65Z" fill="black"/>
<path d="M66.2 56.375L67.9249 61.975L74.0499 64.7L80.1749 61.975L81.8999 56.375H66.2Z" fill="black"/>
<path d="M15.625 79.75C16.175 79.35 16.875 79.15 17.675 79.15C18.15 79.15 18.55 79.225 18.925 79.35C19.3 79.475 19.6 79.675 19.85 79.9C20.1 80.15 20.3 80.425 20.45 80.75C20.6 81.075 20.7 81.45 20.725 81.85H25.625C25.525 80.75 25.275 79.775 24.825 78.9C24.4 78.05 23.825 77.325 23.1 76.725C22.4 76.15 21.55 75.7 20.625 75.375C19.675 75.075 18.65 74.925 17.525 74.925C15.925 74.925 14.475 75.275 13.175 75.975C11.875 76.675 10.85 77.7 10.075 79.05C9.30005 80.4 8.92505 82.075 8.92505 84.05C8.92505 86.025 9.30005 87.675 10.05 89.05C10.8 90.4 11.825 91.45 13.125 92.15C14.425 92.85 15.875 93.2 17.525 93.2C18.825 93.2 19.975 93 20.95 92.6C21.925 92.2 22.75 91.675 23.425 91.025C24.1 90.375 24.6 89.65 24.975 88.875C25.35 88.1 25.55 87.325 25.6 86.575L20.7 86.55C20.65 86.925 20.525 87.275 20.375 87.575C20.2 87.875 20 88.15 19.725 88.35C19.45 88.55 19.15 88.725 18.8 88.85C18.45 88.975 18.05 89.025 17.6 89.025C16.825 89.025 16.15 88.85 15.6 88.475C15.05 88.1 14.625 87.55 14.325 86.825C14.025 86.1 13.875 85.175 13.875 84.1C13.875 83.075 14.025 82.175 14.3 81.45C14.65 80.725 15.075 80.15 15.625 79.75Z" fill="black"/>
<path d="M27.825 93H40.625V89.1H32.65V86.05H40V82.15H32.65V79.1H40.65V75.2H27.825V93Z" fill="black"/>
<path d="M56.475 84.475C57.05 83.6 57.3251 82.525 57.3251 81.25C57.3251 80 57.05 78.9 56.5 78C55.95 77.1 55.1751 76.4 54.2001 75.925C53.2251 75.45 52.05 75.2 50.725 75.2H43.05V92.975H47.875V87.125H49.55L52.675 93H57.925L54.3 86.35C55.225 85.925 55.95 85.3 56.475 84.475ZM47.875 79.075H49.5751C50.1501 79.075 50.625 79.15 51.025 79.3C51.425 79.45 51.7251 79.7 51.9501 80C52.1751 80.325 52.275 80.725 52.275 81.25C52.275 81.75 52.1751 82.15 51.9501 82.475C51.7251 82.8 51.425 83.025 51.025 83.15C50.625 83.275 50.1501 83.375 49.5751 83.375H47.875V79.075Z" fill="black"/>
<path d="M71.95 84.3C71.325 83.95 70.625 83.75 69.875 83.725V83.55C70.575 83.4 71.175 83.15 71.675 82.8C72.2 82.45 72.6 82 72.875 81.45C73.15 80.9 73.3 80.325 73.3 79.65C73.3 78.75 73.075 77.95 72.6 77.3C72.125 76.625 71.425 76.125 70.5 75.75C69.575 75.375 68.45 75.2 67.075 75.2H59.375V92.975H67.75C69.05 92.975 70.15 92.75 71.075 92.325C72 91.9 72.725 91.3 73.225 90.525C73.725 89.775 73.975 88.9 73.975 87.925C73.975 87.075 73.8 86.35 73.425 85.725C73.075 85.15 72.575 84.65 71.95 84.3ZM64.2 79H66.25C66.85 79 67.35 79.15 67.75 79.45C68.15 79.75 68.35 80.175 68.35 80.725C68.35 81.1 68.25 81.4 68.075 81.65C67.9 81.9 67.65 82.1 67.325 82.225C67 82.35 66.625 82.425 66.2 82.425H64.225V79H64.2ZM68.275 88.675C67.875 88.975 67.25 89.125 66.45 89.125H64.2V85.375H66.525C67.025 85.375 67.45 85.45 67.8 85.6C68.15 85.75 68.425 85.975 68.6 86.25C68.8 86.55 68.875 86.9 68.875 87.3C68.875 87.925 68.675 88.375 68.275 88.675Z" fill="black"/>
<path d="M75.7 93H88.475V89.1H80.5249V86.05H87.85V82.15H80.5249V79.1H88.5249V75.2H75.7V93Z" fill="black"/>
<path d="M104.35 84.475C104.925 83.6 105.2 82.525 105.2 81.25C105.2 80 104.925 78.9 104.375 78C103.825 77.1 103.05 76.4 102.075 75.925C101.1 75.45 99.9251 75.2 98.6001 75.2H90.925V92.975H95.75V87.125H97.425L100.55 93H105.8L102.2 86.375C103.075 85.925 103.8 85.3 104.35 84.475ZM95.75 79.075H97.4501C98.0251 79.075 98.5 79.15 98.9 79.3C99.3 79.45 99.6001 79.7 99.8251 80C100.05 80.325 100.15 80.725 100.15 81.25C100.15 81.75 100.05 82.15 99.8251 82.475C99.6001 82.8 99.3 83.025 98.9 83.15C98.5 83.275 98.0251 83.375 97.4501 83.375H95.75V79.075Z" fill="black"/>
<path d="M117.75 86.175C117.75 86.725 117.625 87.225 117.375 87.65C117.125 88.075 116.8 88.425 116.375 88.65C115.95 88.9 115.45 89.025 114.9 89.025C114.35 89.025 113.85 88.9 113.425 88.65C113 88.4 112.65 88.075 112.425 87.65C112.175 87.225 112.05 86.725 112.05 86.175V75.2H107.225V86.6C107.225 87.95 107.55 89.125 108.175 90.125C108.8 91.125 109.7 91.875 110.875 92.4C112.025 92.925 113.375 93.2 114.9 93.2C116.425 93.2 117.75 92.925 118.9 92.4C120.05 91.875 120.95 91.1 121.6 90.125C122.25 89.15 122.575 87.975 122.575 86.6V75.2H117.75V86.175V86.175Z" fill="black"/>
<path d="M139 85.875C138.8 85.3 138.45 84.775 138.025 84.325C137.575 83.875 137 83.475 136.3 83.125C135.6 82.775 134.75 82.5 133.775 82.3L132.325 81.975C131.9 81.9 131.55 81.8 131.225 81.675C130.925 81.575 130.675 81.45 130.475 81.3C130.275 81.175 130.125 81 130.05 80.85C129.95 80.675 129.925 80.475 129.925 80.275C129.925 80.025 130 79.775 130.15 79.575C130.3 79.375 130.525 79.2 130.85 79.1C131.175 79 131.575 78.925 132.075 78.925C132.85 78.925 133.45 79.075 133.825 79.4C134.2 79.725 134.425 80.175 134.475 80.75H139.1C139.1 79.575 138.8 78.575 138.225 77.7C137.65 76.825 136.85 76.15 135.8 75.675C134.75 75.2 133.5 74.95 132.075 74.95C130.675 74.95 129.425 75.175 128.325 75.65C127.25 76.125 126.4 76.775 125.775 77.625C125.15 78.475 124.85 79.45 124.875 80.6C124.875 82 125.325 83.075 126.225 83.875C127.125 84.675 128.375 85.25 129.95 85.6L131.725 85.975C132.375 86.125 132.9 86.275 133.3 86.45C133.7 86.625 133.975 86.8 134.15 87C134.325 87.2 134.4 87.45 134.425 87.725C134.425 88.025 134.325 88.275 134.15 88.5C133.975 88.725 133.7 88.9 133.35 89.025C133 89.15 132.575 89.225 132.05 89.225C131.425 89.225 130.9 89.125 130.475 88.95C130.025 88.75 129.7 88.475 129.45 88.1C129.2 87.725 129.075 87.275 129.05 86.725H124.475C124.475 88.225 124.8 89.425 125.425 90.375C126.05 91.325 126.95 92.025 128.1 92.5C129.25 92.95 130.6 93.175 132.15 93.175C133.65 93.175 134.95 92.975 136.025 92.55C137.1 92.125 137.925 91.5 138.5 90.7C139.075 89.9 139.375 88.9 139.375 87.725C139.325 87.075 139.225 86.45 139 85.875Z" fill="black"/>
</svg>
