<svg fill="none" height="48" title="Android logo." viewBox="0 0 42 48" width="42" xmlns="http://www.w3.org/2000/svg" xmlns:xlink="http://www.w3.org/1999/xlink"><clipPath id="a"><path d="m.020874 0h41.4961v48h-41.4961z"/></clipPath><g clip-path="url(#a)"><path d="m33.7279 15.2343c0-4.2968-2.4726-8.07029-6.168-10.15622l2.043-3.6836c.0618-.10728.1015-.22588.1167-.34877.0151-.122893.0055-.247577-.0284-.366677-.0338-.1191-.0913-.230194-.1688-.326709-.0776-.096514-.1737-.176487-.2828-.235186-.2145-.11892753-.4674-.1478805-.7032-.080502-.2358.067378-.4353.225581-.5546.439878l-2.0937 3.781246c-3.2892-1.29162-6.9452-1.29162-10.2344 0l-2.0977-3.781246c-.0586-.106488-.1378-.200314-.2329-.276076-.0951-.075761-.2043-.1319615-.3212-.1653646-.1169-.03340299-.2393-.0433487-.36-.02926439-.1208.01408429-.2376.05192039-.3437.11132899-.1065.058688-.2003.137862-.2761.232962-.0757.0951-.1319.204248-.1653.321158-.0334.116911-.0434.239274-.0293.360042.0141.12077.0519.23756.1113.34365l2.043 3.70313c-3.6992 2.08593-6.14842 5.85942-6.14842 10.15622zm4.375 0c.4487 0 .8929.0885 1.3074.2603s.791.4236 1.1081.7411c.3171.3174.5685.6942.7398 1.1089.1714.4147.2593.859.2588 1.3077v12.1094c.0005.4486-.0874.893-.2588 1.3077-.1713.4146-.4227.7915-.7398 1.1089s-.6936.5693-1.1081.7411-.8587.2602-1.3074.2602c-.9065 0-1.7759-.3601-2.4169-1.0011s-1.0011-1.5103-1.0011-2.4168v-12.1094c0-.9065.3601-1.7759 1.0011-2.4169s1.5104-1.0011 2.4169-1.0011zm-34.66405 0c.9065 0 1.77588.3601 2.41687 1.0011s1.0011 1.5104 1.0011 2.4169v12.1094c0 .9065-.36011 1.7758-1.0011 2.4168s-1.51037 1.0011-2.41687 1.0011c-.90515 0-1.77334-.359-2.41411-.9983-.640769-.6393-1.0017881-1.5067-1.003857-2.4118v-12.1094c-.0010275-.4495.086623-.8948.257932-1.3104.171308-.4156.422911-.7933.740405-1.1115.31749-.3182.69463-.5707 1.10982-.743.4152-.1722.8603-.2609 1.30981-.2609zm15.90625 22.9414v6.4063c0 .9065-.3601 1.7759-1.0011 2.4169-.641.6409-1.5104 1.0011-2.4169 1.0011-.9048-.0021-1.7717-.3633-2.4104-1.0041-.6387-.6409-.9969-1.5091-.9958-2.4139v-6.4063h-1.5625c-.8288 0-1.62368-.3292-2.20973-.9153-.58605-.586-.91529-1.3809-.91529-2.2097v-18.789h25.89452v18.7812c0 .8288-.3292 1.6237-.9153 2.2097-.586.5861-1.3809.9153-2.2097.9153h-1.5625v6.4063c0 .9065-.3601 1.7759-1.0011 2.4168-.641.641-1.5104 1.0011-2.4169 1.0011-.9065 0-1.7758-.3601-2.4168-1.0011-.641-.6409-1.0011-1.5103-1.0011-2.4168v-6.3985z" fill="#a4c639"/><g fill="#fff"><path d="m15.3568 9.41014c0-.11296-.0335-.22338-.0964-.31725-.0628-.09387-.1521-.16696-.2566-.21001-.1044-.04305-.2193-.05411-.33-.03179-.1107.02233-.2124.07703-.292.15718s-.1336.18214-.1551.29302c-.0216.11089-.0097.22568.034.32982.0438.10414.1175.19294.2118.25513.0943.0622.2049.09499.3179.09421.0747.00001.1487-.01477.2177-.04348.0689-.02871.1316-.07078.1842-.12379s.0943-.11591.1225-.18508c.0283-.06917.0425-.14325.042-.21796z"/><path d="m14.8646 9.41014c.0045-.01263.0045-.02642 0-.03906-.0119-.00858-.0263-.0132-.041-.0132s-.029.00462-.041.0132c-.0037.01276-.0037.0263 0 .03906-.0006.00785.0005.01572.0033.0231.0027.00737.007.01407.0126.01963.0055.00556.0122.00986.0196.0126.0074.00273.0153.00385.0231.00327.0128.00369.0263.00369.0391 0 .0054-.01381.0054-.02917 0-.04297zm.7071-.78125c.1005.10016.1802.21918.2347.35023.0544.13105.0824.27155.0824.41344 0 .1419-.028.2824-.0824.41345-.0545.13105-.1342.25009-.2347.35019-.2035.2023-.4787.3159-.7656.3159-.287 0-.5622-.1136-.7657-.3159-.1063-.0989-.1917-.21826-.2509-.35089s-.0912-.27584-.0939-.42107c-.0027-.14524.0239-.28953.0781-.42428.0543-.13475.1351-.2572.2377-.36005s.2248-.18398.3594-.23858c.1346-.05459.2789-.08152.4241-.07918s.2885.0339.4213.0928c.1328.05891.2524.14394.3516.25004z"/><path d="m27.3217 9.41016c0-.1128-.0335-.22306-.0962-.31685-.0626-.09379-.1517-.16689-.2559-.21005-.1042-.04317-.2189-.05446-.3295-.03246-.1107.02201-.2123.07633-.292.15608-.0798.07976-.1341.18138-.1561.29201s-.0107.22531.0324.32952c.0432.10421.1163.19328.2101.25595.0938.06266.204.09611.3168.09611.1513 0 .2964-.06009.4033-.16704.107-.10695.1671-.25202.1671-.40327z"/><path d="m26.8061 9.41014c.0044-.01264.0044-.02642 0-.03906-.012-.00859-.0263-.0132-.0411-.0132-.0147 0-.029.00461-.041.0132-.0037.01276-.0037.0263 0 .03906-.0006.00785.0006.01572.0033.0231.0027.00737.007.01407.0126.01963s.0122.00986.0196.0126c.0074.00273.0153.00385.0231.00327.0128.00368.0263.00368.0391 0 .0054-.01381.0054-.02917 0-.04297zm.707-.78125c.191.20534.2949.47682.2896.75723-.0052.28041-.1191.54784-.3177.74588-.1985.1981-.4663.3113-.7467.3158s-.5516-.1-.7565-.2916c-.1063-.0989-.1917-.21826-.2509-.35089s-.0912-.27584-.0939-.42107c-.0027-.14524.0239-.28953.0781-.42428.0543-.13476.1351-.2572.2377-.36005s.2248-.18398.3594-.23858c.1346-.05459.2789-.08152.4241-.07918s.2885.0339.4213.0928c.1328.05891.2524.14394.3516.25004z"/></g></g></svg>