<svg fill="none" height="28" viewBox="0 0 72 28" width="72" xmlns="http://www.w3.org/2000/svg" xmlns:xlink="http://www.w3.org/1999/xlink"><clipPath id="a"><path d="m.312012 0h70.7951v28h-70.7951z"/></clipPath><g clip-path="url(#a)"><path d="m38.8667 6.1358c7.4494 0 11.0272 5.8938 11.0272 10.9465s-3.5778 10.9465-11.0272 10.9465c-7.4493 0-11.0329-5.8881-11.0329-10.9465s3.5778-10.9465 11.0329-10.9465zm0 16.1317c.6643-.0126 1.3194-.1573 1.927-.4259.6077-.2686 1.1557-.6555 1.6122-1.1382.4564-.4828.8121-1.0516 1.0463-1.6733.2341-.6217.342-1.2839.3174-1.9478.057-.6777-.0273-1.3598-.2475-2.0032-.2202-.6435-.5716-1.2342-1.0319-1.7348-.4603-.5007-1.0195-.9003-1.6422-1.1737-.6227-.2733-1.2954-.4145-1.9755-.4145s-1.3527.1412-1.9755.4145c-.6227.2734-1.1819.673-1.6422 1.1737-.4603.5006-.8116 1.0913-1.0319 1.7348-.2202.6434-.3045 1.3255-.2475 2.0032-.0238.6642.0848 1.3265.3196 1.9482.2348.6218.591 1.1906 1.0479 1.6732.4569.4827 1.0054.8695 1.6133 1.138.608.2685 1.2633.4132 1.9278.4258zm14.4898-22.2675h6.2107v27.4296h-6.2107zm13.6255 19.3695c-.8159 0-1.6134.242-2.2918.6953-.6784.4532-1.2071 1.0975-1.5193 1.8512-.3122.7538-.3939 1.5832-.2348 2.3834.1592.8002.5521 1.5352 1.129 2.1121s1.3119.9698 2.1121 1.129 1.6296.0775 2.3834-.2348c.7538-.3122 1.398-.8409 1.8513-1.5193.4533-.6783.6952-1.4759.6952-2.2917-.0015-1.0936-.4366-2.142-1.2099-2.9153-.7733-.7732-1.8216-1.2083-2.9152-1.2099zm-50.3424-19.3695h-5.5251l-10.802488 27.4296h7.322638l1.44609-3.9638h9.52346l1.3366 3.9638h7.3918zm-5.6346 17.9004 2.8807-9.56377 2.8806 9.56377z" fill="#e2e8f0"/></g></svg>