<svg fill="none" height="42" title="Apple logo." viewBox="0 0 42 42" width="42" xmlns="http://www.w3.org/2000/svg" xmlns:xlink="http://www.w3.org/1999/xlink"><clipPath id="a"><path d="m0 0h42v42h-42z"/></clipPath><g clip-path="url(#a)"><path clip-rule="evenodd" d="m32.4701 22.3138c-.0527-5.3173 4.3367-7.8689 4.5328-7.9952-2.4671-3.6089-6.3109-4.105-7.6805-4.1608-3.271-.33021-6.3815 1.9269-8.0433 1.9269-1.6573 0-4.2182-1.8773-6.9303-1.8277-3.5648.0527-6.85126 2.0734-8.68896 5.2661-3.70355 6.4256-.9473 15.9493 2.66247 21.1597 1.76339 2.5516 3.86619 5.418 6.62789 5.3156 2.6586-.1046 3.6647-1.7222 6.8807-1.7222 3.2152 0 4.1182 1.7223 6.9326 1.6672 2.8617-.0527 4.6746-2.6012 6.4263-5.1614 2.027-2.961 2.8579-5.8242 2.9083-5.9715-.0636-.0286-5.58-2.1416-5.6358-8.4944l.0077-.0023zm-5.2862-15.60838c1.4649-1.77732 2.4547-4.24449 2.1842-6.70700691-2.1106.08603441-4.6701 1.40680691-6.1853 3.18182691-1.3604 1.57579-2.5486 4.08713-2.2308 6.49924 2.3571.18375 4.7638-1.19753 6.2295-2.97098z" fill="#64748b" fill-rule="evenodd"/></g></svg>