<svg fill="none" height="60" viewBox="0 0 335 60" width="335" xmlns="http://www.w3.org/2000/svg"><path d="m15 15h144v30h-144z" fill="#212529"/><path d="m27.98 23.4h1.53v13.23l-9.54-10.008v9.378h-1.53v-13.23l9.54 10.008zm3.607 8.46c0-.84.186-1.584.558-2.232.384-.648.9-1.158 1.548-1.53s1.374-.558 2.178-.558c.816 0 1.542.186 2.178.558.648.372 1.158.882 1.53 1.53.384.648.576 1.392.576 2.232 0 .828-.192 1.572-.576 2.232-.372.648-.882 1.158-1.53 1.53-.636.372-1.362.558-2.178.558-.804 0-1.53-.186-2.178-.558s-1.164-.882-1.548-1.53c-.372-.66-.558-1.404-.558-2.232zm1.458 0c0 .576.12 1.086.36 1.53.252.444.588.798 1.008 1.062.432.252.918.378 1.458.378s1.02-.126 1.44-.378c.432-.264.768-.618 1.008-1.062.252-.444.378-.954.378-1.53s-.126-1.086-.378-1.53c-.24-.456-.576-.81-1.008-1.062-.42-.252-.9-.378-1.44-.378s-1.026.126-1.458.378c-.42.252-.756.606-1.008 1.062-.24.444-.36.954-.36 1.53zm15.0427.324c.42.768.888 1.386 1.404 1.854.528.468 1.17.702 1.926.702.672 0 1.212-.186 1.62-.558s.612-.846.612-1.422c0-.564-.132-1.014-.396-1.35s-.612-.606-1.044-.81c-.42-.216-.87-.408-1.35-.576-.312-.108-.66-.246-1.044-.414-.384-.18-.75-.402-1.098-.666-.348-.276-.636-.612-.864-1.008-.216-.396-.324-.882-.324-1.458 0-.624.156-1.182.468-1.674s.744-.876 1.296-1.152c.552-.288 1.182-.432 1.89-.432.684 0 1.278.132 1.782.396.516.252.954.582 1.314.99.36.396.642.816.846 1.26l-1.314.756c-.156-.312-.354-.618-.594-.918s-.534-.546-.882-.738c-.336-.192-.75-.288-1.242-.288-.684 0-1.182.168-1.494.504-.312.324-.468.69-.468 1.098 0 .528.21.99.63 1.386s1.182.786 2.286 1.17c.336.12.69.276 1.062.468s.714.438 1.026.738c.324.288.588.642.792 1.062.204.408.306.9.306 1.476 0 .732-.186 1.368-.558 1.908-.36.54-.834.96-1.422 1.26-.588.288-1.218.432-1.89.432-.684 0-1.32-.144-1.908-.432-.576-.3-1.086-.69-1.53-1.17-.432-.492-.786-1.014-1.062-1.566zm8.0433-4.464h1.35v-2.88h1.44v2.88h1.35v1.35h-1.35v6.93h-1.44v-6.93h-1.35zm12.1542 0-5.4 12.24h-1.62l2.268-5.13-3.168-7.11h1.71l2.322 5.706 2.268-5.706zm1.3578-5.76h1.44v14.04h-1.44zm7.3524 14.22c-.768 0-1.452-.18-2.052-.54-.588-.372-1.05-.882-1.386-1.53-.324-.648-.486-1.398-.486-2.25 0-.864.168-1.62.504-2.268.348-.648.828-1.152 1.44-1.512.624-.36 1.344-.54 2.16-.54 1.212 0 2.166.378 2.862 1.134s1.044 1.794 1.044 3.114c0 .084-.006.174-.018.27v.162h-6.516c.06.828.318 1.47.774 1.926s1.074.684 1.854.684c1.128 0 1.992-.498 2.592-1.494l1.17.738c-.864 1.404-2.178 2.106-3.942 2.106zm.18-7.38c-.708 0-1.284.192-1.728.576-.444.372-.726.912-.846 1.62h4.914c-.048-.66-.288-1.188-.72-1.584-.42-.408-.96-.612-1.62-.612zm6.2217 4.662c.252.384.558.714.918.99.372.276.816.414 1.332.414.408 0 .726-.09.954-.27.24-.192.36-.45.36-.774 0-.288-.096-.528-.288-.72-.18-.204-.414-.372-.702-.504-.288-.144-.594-.276-.918-.396-.36-.144-.726-.312-1.098-.504-.36-.204-.666-.462-.918-.774-.24-.324-.36-.726-.36-1.206 0-.492.126-.9.378-1.224.264-.324.6-.564 1.008-.72.42-.156.852-.234 1.296-.234.66 0 1.26.156 1.8.468s.936.696 1.188 1.152l-1.152.738c-.228-.312-.516-.57-.864-.774-.336-.204-.72-.306-1.152-.306-.3 0-.558.066-.774.198s-.324.336-.324.612c0 .336.174.612.522.828.36.204.762.396 1.206.576.48.192.918.402 1.314.63.396.216.708.48.936.792.24.312.36.714.36 1.206 0 .72-.264 1.32-.792 1.8-.516.48-1.2.72-2.052.72-.552 0-1.05-.096-1.494-.288-.444-.204-.822-.462-1.134-.774-.3-.312-.528-.63-.684-.954zm11.5942-1.602c0-.84.186-1.584.558-2.232.384-.648.9-1.158 1.548-1.53s1.374-.558 2.178-.558c.8157 0 1.5417.186 2.1777.558.648.372 1.158.882 1.53 1.53.384.648.576 1.392.576 2.232 0 .828-.192 1.572-.576 2.232-.372.648-.882 1.158-1.53 1.53-.636.372-1.362.558-2.1777.558-.804 0-1.53-.186-2.178-.558s-1.164-.882-1.548-1.53c-.372-.66-.558-1.404-.558-2.232zm1.458 0c0 .576.12 1.086.36 1.53.252.444.588.798 1.008 1.062.432.252.918.378 1.458.378s1.0197-.126 1.4397-.378c.432-.264.768-.618 1.008-1.062.252-.444.378-.954.378-1.53s-.126-1.086-.378-1.53c-.24-.456-.576-.81-1.008-1.062-.42-.252-.8997-.378-1.4397-.378s-1.026.126-1.458.378c-.42.252-.756.606-1.008 1.062-.24.444-.36.954-.36 1.53zm14.3987-.9c0-1.38-.588-2.07-1.764-2.07-.624 0-1.134.192-1.53.576-.384.384-.576.882-.576 1.494v5.04h-1.44v-8.28h1.44v1.296c.54-.984 1.362-1.476 2.466-1.476.876 0 1.566.294 2.07.882.516.576.774 1.362.774 2.358v5.22h-1.44zm11.739.324 6.804 3.006v1.44l-9.18-3.96v-.81l9.18-3.96v1.44zm8.058-3.564h1.35v-2.88h1.44v2.88h1.35v1.35h-1.35v6.93h-1.44v-6.93h-1.35zm4.864 4.14c0-.9.186-1.668.558-2.304.372-.648.87-1.146 1.494-1.494s1.308-.522 2.052-.522c.612 0 1.158.138 1.638.414.492.276.888.672 1.188 1.188v-7.182h1.44v14.04h-1.44v-1.422c-.3.516-.696.912-1.188 1.188-.48.276-1.026.414-1.638.414-.744 0-1.428-.174-2.052-.522s-1.122-.846-1.494-1.494-.558-1.416-.558-2.304zm1.458 0c0 .636.126 1.176.378 1.62.264.444.612.78 1.044 1.008s.9.342 1.404.342c.42 0 .834-.114 1.242-.342s.744-.564 1.008-1.008.396-.984.396-1.62-.132-1.176-.396-1.62-.6-.78-1.008-1.008-.822-.342-1.242-.342c-.504 0-.972.114-1.404.342s-.78.564-1.044 1.008c-.252.444-.378.984-.378 1.62zm16.152-.414-6.804-3.006v-1.44l9.18 3.96v.81l-9.18 3.96v-1.44z" fill="#fff"/><path d="m1 1h172v58h-172z" stroke="#212529" stroke-width="2"/><path d="m191 1h143v58h-143z" fill="#212529"/><path d="m205 15h115v30h-115z" fill="#212529"/><path d="m208.908 32.184c.42.768.888 1.386 1.404 1.854.528.468 1.17.702 1.926.702.672 0 1.212-.186 1.62-.558s.612-.846.612-1.422c0-.564-.132-1.014-.396-1.35s-.612-.606-1.044-.81c-.42-.216-.87-.408-1.35-.576-.312-.108-.66-.246-1.044-.414-.384-.18-.75-.402-1.098-.666-.348-.276-.636-.612-.864-1.008-.216-.396-.324-.882-.324-1.458 0-.624.156-1.182.468-1.674s.744-.876 1.296-1.152c.552-.288 1.182-.432 1.89-.432.684 0 1.278.132 1.782.396.516.252.954.582 1.314.99.36.396.642.816.846 1.26l-1.314.756c-.156-.312-.354-.618-.594-.918s-.534-.546-.882-.738c-.336-.192-.75-.288-1.242-.288-.684 0-1.182.168-1.494.504-.312.324-.468.69-.468 1.098 0 .528.21.99.63 1.386s1.182.786 2.286 1.17c.336.12.69.276 1.062.468s.714.438 1.026.738c.324.288.588.642.792 1.062.204.408.306.9.306 1.476 0 .732-.186 1.368-.558 1.908-.36.54-.834.96-1.422 1.26-.588.288-1.218.432-1.89.432-.684 0-1.32-.144-1.908-.432-.576-.3-1.086-.69-1.53-1.17-.432-.492-.786-1.014-1.062-1.566zm8.043-4.464h1.35v-2.88h1.44v2.88h1.35v1.35h-1.35v6.93h-1.44v-6.93h-1.35zm12.155 0-5.4 12.24h-1.62l2.268-5.13-3.168-7.11h1.71l2.322 5.706 2.268-5.706zm1.357-5.76h1.44v14.04h-1.44zm7.353 14.22c-.768 0-1.452-.18-2.052-.54-.588-.372-1.05-.882-1.386-1.53-.324-.648-.486-1.398-.486-2.25 0-.864.168-1.62.504-2.268.348-.648.828-1.152 1.44-1.512.624-.36 1.344-.54 2.16-.54 1.212 0 2.166.378 2.862 1.134s1.044 1.794 1.044 3.114c0 .084-.006.174-.018.27v.162h-6.516c.06.828.318 1.47.774 1.926s1.074.684 1.854.684c1.128 0 1.992-.498 2.592-1.494l1.17.738c-.864 1.404-2.178 2.106-3.942 2.106zm.18-7.38c-.708 0-1.284.192-1.728.576-.444.372-.726.912-.846 1.62h4.914c-.048-.66-.288-1.188-.72-1.584-.42-.408-.96-.612-1.62-.612zm6.221 4.662c.252.384.558.714.918.99.372.276.816.414 1.332.414.408 0 .726-.09.954-.27.24-.192.36-.45.36-.774 0-.288-.096-.528-.288-.72-.18-.204-.414-.372-.702-.504-.288-.144-.594-.276-.918-.396-.36-.144-.726-.312-1.098-.504-.36-.204-.666-.462-.918-.774-.24-.324-.36-.726-.36-1.206 0-.492.126-.9.378-1.224.264-.324.6-.564 1.008-.72.42-.156.852-.234 1.296-.234.66 0 1.26.156 1.8.468s.936.696 1.188 1.152l-1.152.738c-.228-.312-.516-.57-.864-.774-.336-.204-.72-.306-1.152-.306-.3 0-.558.066-.774.198s-.324.336-.324.612c0 .336.174.612.522.828.36.204.762.396 1.206.576.48.192.918.402 1.314.63.396.216.708.48.936.792.24.312.36.714.36 1.206 0 .72-.264 1.32-.792 1.8-.516.48-1.2.72-2.052.72-.552 0-1.05-.096-1.494-.288-.444-.204-.822-.462-1.134-.774-.3-.312-.528-.63-.684-.954zm11.595-1.602c0-.84.186-1.584.558-2.232.384-.648.9-1.158 1.548-1.53s1.374-.558 2.178-.558c.816 0 1.542.186 2.178.558.648.372 1.158.882 1.53 1.53.384.648.576 1.392.576 2.232 0 .828-.192 1.572-.576 2.232-.372.648-.882 1.158-1.53 1.53-.636.372-1.362.558-2.178.558-.804 0-1.53-.186-2.178-.558s-1.164-.882-1.548-1.53c-.372-.66-.558-1.404-.558-2.232zm1.458 0c0 .576.12 1.086.36 1.53.252.444.588.798 1.008 1.062.432.252.918.378 1.458.378s1.02-.126 1.44-.378c.432-.264.768-.618 1.008-1.062.252-.444.378-.954.378-1.53s-.126-1.086-.378-1.53c-.24-.456-.576-.81-1.008-1.062-.42-.252-.9-.378-1.44-.378s-1.026.126-1.458.378c-.42.252-.756.606-1.008 1.062-.24.444-.36.954-.36 1.53zm14.398-.9c0-1.38-.588-2.07-1.764-2.07-.624 0-1.134.192-1.53.576-.384.384-.576.882-.576 1.494v5.04h-1.44v-8.28h1.44v1.296c.54-.984 1.362-1.476 2.466-1.476.876 0 1.566.294 2.07.882.516.576.774 1.362.774 2.358v5.22h-1.44zm11.739.324 6.804 3.006v1.44l-9.18-3.96v-.81l9.18-3.96v1.44zm8.058-3.564h1.35v-2.88h1.44v2.88h1.35v1.35h-1.35v6.93h-1.44v-6.93h-1.35zm4.864 4.14c0-.9.186-1.668.558-2.304.372-.648.87-1.146 1.494-1.494s1.308-.522 2.052-.522c.612 0 1.158.138 1.638.414.492.276.888.672 1.188 1.188v-7.182h1.44v14.04h-1.44v-1.422c-.3.516-.696.912-1.188 1.188-.48.276-1.026.414-1.638.414-.744 0-1.428-.174-2.052-.522s-1.122-.846-1.494-1.494-.558-1.416-.558-2.304zm1.458 0c0 .636.126 1.176.378 1.62.264.444.612.78 1.044 1.008s.9.342 1.404.342c.42 0 .834-.114 1.242-.342s.744-.564 1.008-1.008.396-.984.396-1.62-.132-1.176-.396-1.62-.6-.78-1.008-1.008-.822-.342-1.242-.342c-.504 0-.972.114-1.404.342s-.78.564-1.044 1.008c-.252.444-.378.984-.378 1.62zm16.152-.414-6.804-3.006v-1.44l9.18 3.96v.81l-9.18 3.96v-1.44z" fill="#fff"/><path d="m191 1h143v58h-143z" stroke="#212529" stroke-width="2"/></svg>