<svg fill="none" height="36" title="Gmail logo." viewBox="0 0 49 36" width="49" xmlns="http://www.w3.org/2000/svg" xmlns:xlink="http://www.w3.org/1999/xlink"><clipPath id="a"><path d="m0 0h48.0208v36h-48.0208z"/></clipPath><g clip-path="url(#a)"><path d="m3.26704 36h7.63616v-18.5432l-10.9032-8.17152v23.47892c0 1.7899 1.4772 3.2358 3.26704 3.2358z" fill="#4285f4"/><path d="m37.1138 36h7.6361c1.825 0 3.267-1.4772 3.267-3.267v-23.44772l-10.9031 8.17152z" fill="#34a853"/><path d="m37.1138 3.28269v14.17411l10.907-8.17151v-4.36908c0-4.052541-4.6191-6.35041-7.8588-3.927487z" fill="#fbbc04"/><path d="m10.9032 17.4568v-14.17412l13.1072 9.83632 13.1034-9.83632v14.17412l-13.1034 9.805z" fill="#ea4335"/><path d="m0 4.9162v4.36909l10.9071 8.17151v-14.17412l-3.04822-2.293961c-3.23969-2.419019-7.85888-.09379-7.85888 3.927481z" fill="#c5221f"/></g></svg>