<svg fill="none" height="16" viewBox="0 0 16 16" width="16" xmlns="http://www.w3.org/2000/svg" xmlns:xlink="http://www.w3.org/1999/xlink"><clipPath id="a"><path d="m0 0h16v16h-16z"/></clipPath><g clip-path="url(#a)"><path d="m15.4258 11.0881c-.5474 1.3-1.4278 2.4328-2.5524 3.2843s-2.4537 1.3916-3.85344 1.566c-1.39976.1744-2.82077-.0231-4.11989-.5727-1.29913-.5495-2.43051-1.4317-3.28021-2.5577-.849704-1.1259-1.387715-2.4559-1.5598568-3.85592-.1721412-1.40004.027666-2.82072.5792998-4.11897.551637-1.29825 1.435617-2.42822 2.562917-3.27612 1.12731-.847895 2.45813-1.383779 3.85844-1.55368123.09716-.01160199.1955.00747683.28127.05456393.08576.0470873.15465.1198233.19701.2080203.04431.086568.06.184959.04484.281015-.01517.096056-.06042.184824-.12924.25353-.57484.570282-1.02952 1.250002-1.33717 1.999002-.30766.74901-.46204 1.55208-.45403 2.36177.00826 1.06426.29206 2.10824.82374 3.03021.53169.92197 1.29314 1.6905 2.21015 2.23068.91701.5402 1.95837.8337 3.02247.8518s2.1148-.2398 3.0497-.7485c.0868-.0448.185-.0625.282-.0508s.1882.0523.2619.1165c.0628.0644.1065.1449.1264.2326.0198.0877.015.1792-.0139.2644z" fill="#748ffc"/></g></svg>