<svg fill="none" height="16" viewBox="0 0 16 16" width="16" xmlns="http://www.w3.org/2000/svg"><g fill="#ffe066"><path d="m8 12c2.2091 0 4-1.7909 4-4 0-2.20914-1.7909-4-4-4-2.20914 0-4 1.79086-4 4 0 2.2091 1.79086 4 4 4z"/><path d="m15.2 8.80001h-.8c-.2122 0-.4157-.08428-.5657-.23431s-.2343-.35351-.2343-.56569c0-.21217.0843-.41565.2343-.56568s.3535-.23432.5657-.23432h.8c.2122 0 .4157.08429.5657.23432s.2343.35351.2343.56568c0 .21218-.0843.41566-.2343.56569s-.3535.23431-.5657.23431z"/><path d="m1.6 8.80001h-.8c-.212173 0-.415656-.08428-.565685-.23431-.1500296-.15003-.234315-.35351-.234315-.56569 0-.21217.0842854-.41565.234315-.56568.150029-.15003.353512-.23432.565685-.23432h.8c.21217 0 .41566.08429.56569.23432.15002.15003.23431.35351.23431.56568 0 .21218-.08429.41566-.23431.56569-.15003.15003-.35352.23431-.56569.23431z"/><path d="m12.528 4.272c-.1987-.009-.387-.09171-.528-.232-.149-.14989-.2326-.35265-.2326-.564s.0836-.41411.2326-.564l.568-.568c.0717-.08375.16-.15177.2592-.19978.0993-.04802.2074-.07501.3176-.07926.1101-.00426.22.01431.3227.05453.1026.04022.1959.10122.2738.17919.078.07796.139.1712.1792.27386s.0588.21252.0545.3227c-.0042.11017-.0312.21828-.0792.31753s-.1161.18751-.1998.25923l-.568.568c-.0785.07809-.1724.13903-.2757.17896-.1032.03994-.2137.058-.3243.05304z"/><path d="m2.91199 13.888c-.10528.0006-.20965-.0196-.30712-.0594s-.18613-.0984-.26088-.1726c-.149-.1499-.23263-.3526-.23263-.564 0-.2113.08363-.4141.23263-.564l.568-.528c.15304-.131.3499-.1995.55125-.1918.20134.0078.39233.0913.5348.2338.14248.1424.22595.3334.23372.5348.00778.2013-.06071.3982-.19177.5512l-.568.568c-.15525.1333-.35565.202-.56.192z"/><path d="m8.00001 2.4c-.21217 0-.41565-.08429-.56568-.23431-.15003-.15003-.23432-.35352-.23432-.56569v-.8c0-.212173.08429-.415656.23432-.565685.15003-.1500296.35351-.234315.56568-.234315.21218 0 .41566.0842854.56569.234315.15003.150029.23431.353512.23431.565685v.8c0 .21217-.08428.41566-.23431.56569-.15003.15002-.35351.23431-.56569.23431z"/><path d="m8.00001 16c-.21217 0-.41565-.0843-.56568-.2343s-.23432-.3535-.23432-.5657v-.8c0-.2122.08429-.4157.23432-.5657s.35351-.2343.56568-.2343c.21218 0 .41566.0843.56569.2343s.23431.3535.23431.5657v.8c0 .2122-.08428.4157-.23431.5657s-.35351.2343-.56569.2343z"/><path d="m3.47201 4.27201c-.20987-.00089-.41099-.08421-.56-.232l-.568-.568c-.13106-.15304-.19955-.3499-.19177-.55125.00778-.20134.09124-.39233.23372-.5348.14247-.14248.33346-.22594.5348-.23372.20135-.00778.39821.06071.55125.19177l.568.568c.149.14989.23263.35265.23263.564s-.08363.41411-.23263.564c-.07475.07414-.16341.1328-.26088.17261-.09747.03982-.20184.06-.30712.05939z"/><path d="m13.088 13.888c-.2099-.0009-.411-.0842-.56-.232l-.528-.568c-.0846-.152-.1173-.3274-.0932-.4996.0241-.1723.1036-.332.2266-.455s.2827-.2025.455-.2266c.1722-.0241.3476.0086.4996.0932l.568.568c.149.1499.2326.3526.2326.564 0 .2113-.0836.4141-.2326.564-.1573.1352-.361.204-.568.192z"/></g></svg>