<svg fill="none" height="16" viewBox="0 0 16 16" width="16" xmlns="http://www.w3.org/2000/svg"><path d="m13.8933 3.07333c-.3405-.34066-.7448-.6109-1.1897-.79528-.445-.18437-.9219-.27927-1.4036-.27927s-.9586.0949-1.40357.27927c-.44498.18438-.84926.45462-1.18977.79528l-.70666.70667-.70667-.70667c-.68779-.6878-1.62064-1.07419-2.59333-1.07419s-1.90554.38639-2.59334 1.07419c-.68779.68779-1.07419 1.62064-1.07419 2.59333s.3864 1.90554 1.07419 2.59334l.70667.70666 5.18667 5.18664 5.1867-5.18664.7066-.70666c.3407-.34051.6109-.74479.7953-1.18977.1844-.44497.2793-.92191.2793-1.40357s-.0949-.95859-.2793-1.40357c-.1844-.44497-.4546-.84926-.7953-1.18976z" stroke="#e64980" stroke-linecap="round" stroke-linejoin="round" stroke-width="2"/></svg>