<svg fill="none" height="94" viewBox="0 0 149 94" width="149" xmlns="http://www.w3.org/2000/svg"><g fill="#94a3b8"><path d="m111.8 45.075-12.975-21.725-8.475 1.225 13.7 20.2-14.55 17 8.475 1.15z"/><path d="m79.05 40.2v6.975l1.1501-2.375 5.4-1.625 5.35-6.7z"/><path d="m125.825 36.075-8.25-12.825-14.55-7.25 1.85-16-27.2 17.075 9.375 1.125-1.25-2.175 12.9251-7.45-6.875 13.125 8.7499-.525 14.625 23.95-9.275 12.05 20.1 3.625c5.725.85 11.45-1.575 14.85-6.25l7.225-9.95zm-15.75-4.825-2.325-5.325 6.775 2.6 3.45 6.125z"/><path d="m36.3 45.075 12.975-21.725 8.475 1.225-13.7 20.2 14.55 17-8.475 1.15z"/><path d="m69.05 40.2v6.975l-1.15-2.375-5.4-1.625-5.35-6.7z"/><path d="m0 44.625 7.225 9.95c3.4 4.675 9.125 7.1 14.85 6.25l20.1-3.625-9.275-12.05 14.625-23.95 8.75.525-6.875-13.12501 12.9 7.45001-1.25 2.175 9.375-1.125-27.2-17.0750061 1.85 16.0000061-14.55 7.25-8.25 12.825zm30.1-9.975 3.45-6.125 6.775-2.6-2.325 5.325z"/><path d="m66.2 56.375 1.7249 5.6 6.125 2.725 6.125-2.725 1.725-5.6z"/><path d="m15.625 79.75c.55-.4 1.25-.6 2.05-.6.475 0 .875.075 1.25.2s.675.325.925.55c.25.25.45.525.6.85s.25.7.275 1.1h4.9c-.1-1.1-.35-2.075-.8-2.95-.425-.85-1-1.575-1.725-2.175-.7-.575-1.55-1.025-2.475-1.35-.95-.3-1.975-.45-3.1-.45-1.6 0-3.05.35-4.35 1.05s-2.325 1.725-3.1 3.075c-.77495 1.35-1.14995 3.025-1.14995 5s.375 3.625 1.12495 5c.75 1.35 1.775 2.4 3.075 3.1s2.75 1.05 4.4 1.05c1.3 0 2.45-.2 3.425-.6s1.8-.925 2.475-1.575 1.175-1.375 1.55-2.15.575-1.55.625-2.3l-4.9-.025c-.05.375-.175.725-.325 1.025-.175.3-.375.575-.65.775s-.575.375-.925.5-.75.175-1.2.175c-.775 0-1.45-.175-2-.55s-.975-.925-1.275-1.65-.45-1.65-.45-2.725c0-1.025.15-1.925.425-2.65.35-.725.775-1.3 1.325-1.7z"/><path d="m27.825 93h12.8v-3.9h-7.975v-3.05h7.35v-3.9h-7.35v-3.05h8v-3.9h-12.825z"/><path d="m56.475 84.475c.575-.875.8501-1.95.8501-3.225 0-1.25-.2751-2.35-.8251-3.25s-1.3249-1.6-2.2999-2.075-2.1501-.725-3.4751-.725h-7.675v17.775h4.825v-5.85h1.675l3.125 5.875h5.25l-3.625-6.65c.925-.425 1.65-1.05 2.175-1.875zm-8.6-5.4h1.7001c.575 0 1.0499.075 1.4499.225s.7001.4.9251.7c.225.325.3249.725.3249 1.25 0 .5-.0999.9-.3249 1.225s-.5251.55-.9251.675-.8749.225-1.4499.225h-1.7001z"/><path d="m71.95 84.3c-.625-.35-1.325-.55-2.075-.575v-.175c.7-.15 1.3-.4 1.8-.75.525-.35.925-.8 1.2-1.35s.425-1.125.425-1.8c0-.9-.225-1.7-.7-2.35-.475-.675-1.175-1.175-2.1-1.55s-2.05-.55-3.425-.55h-7.7v17.775h8.375c1.3 0 2.4-.225 3.325-.65s1.65-1.025 2.15-1.8c.5-.75.75-1.625.75-2.6 0-.85-.175-1.575-.55-2.2-.35-.575-.85-1.075-1.475-1.425zm-7.75-5.3h2.05c.6 0 1.1.15 1.5.45s.6.725.6 1.275c0 .375-.1.675-.275.925s-.425.45-.75.575-.7.2-1.125.2h-1.975v-3.425zm4.075 9.675c-.4.3-1.025.45-1.825.45h-2.25v-3.75h2.325c.5 0 .925.075 1.275.225s.625.375.8.65c.2.3.275.65.275 1.05 0 .625-.2 1.075-.6 1.375z"/><path d="m75.7 93h12.775v-3.9h-7.9501v-3.05h7.3251v-3.9h-7.3251v-3.05h8v-3.9h-12.8249z"/><path d="m104.35 84.475c.575-.875.85-1.95.85-3.225 0-1.25-.275-2.35-.825-3.25s-1.325-1.6-2.3-2.075-2.1499-.725-3.4749-.725h-7.6751v17.775h4.825v-5.85h1.675l3.125 5.875h5.25l-3.6-6.625c.875-.45 1.6-1.075 2.15-1.9zm-8.6-5.4h1.7001c.575 0 1.0499.075 1.4499.225s.7001.4.9251.7c.2249.325.3249.725.3249 1.25 0 .5-.1.9-.3249 1.225-.225.325-.5251.55-.9251.675s-.8749.225-1.4499.225h-1.7001z"/><path d="m117.75 86.175c0 .55-.125 1.05-.375 1.475s-.575.775-1 1c-.425.25-.925.375-1.475.375s-1.05-.125-1.475-.375-.775-.575-1-1c-.25-.425-.375-.925-.375-1.475v-10.975h-4.825v11.4c0 1.35.325 2.525.95 3.525s1.525 1.75 2.7 2.275c1.15.525 2.5.8 4.025.8s2.85-.275 4-.8 2.05-1.3 2.7-2.275.975-2.15.975-3.525v-11.4h-4.825z"/><path d="m139 85.875c-.2-.575-.55-1.1-.975-1.55-.45-.45-1.025-.85-1.725-1.2s-1.55-.625-2.525-.825l-1.45-.325c-.425-.075-.775-.175-1.1-.3-.3-.1-.55-.225-.75-.375-.2-.125-.35-.3-.425-.45-.1-.175-.125-.375-.125-.575 0-.25.075-.5.225-.7s.375-.375.7-.475.725-.175 1.225-.175c.775 0 1.375.15 1.75.475s.6.775.65 1.35h4.625c0-1.175-.3-2.175-.875-3.05s-1.375-1.55-2.425-2.025-2.3-.725-3.725-.725c-1.4 0-2.65.225-3.75.7-1.075.475-1.925 1.125-2.55 1.975s-.925 1.825-.9 2.975c0 1.4.45 2.475 1.35 3.275s2.15 1.375 3.725 1.725l1.775.375c.65.15 1.175.3 1.575.475s.675.35.85.55.25.45.275.725c0 .3-.1.55-.275.775s-.45.4-.8.525-.775.2-1.3.2c-.625 0-1.15-.1-1.575-.275-.45-.2-.775-.475-1.025-.85s-.375-.825-.4-1.375h-4.575c0 1.5.325 2.7.95 3.65s1.525 1.65 2.675 2.125c1.15.45 2.5.675 4.05.675 1.5 0 2.8-.2 3.875-.625s1.9-1.05 2.475-1.85.875-1.8.875-2.975c-.05-.65-.15-1.275-.375-1.85z"/></g></svg>