<svg fill="none" height="44" title="Outlook logo." viewBox="0 0 45 44" width="45" xmlns="http://www.w3.org/2000/svg" xmlns:xlink="http://www.w3.org/1999/xlink"><linearGradient id="a" gradientUnits="userSpaceOnUse" x1="27.1371" x2="27.1371" y1="23.0233" y2="42.4652"><stop offset="0" stop-color="#35b8f1"/><stop offset="1" stop-color="#28a8ea"/></linearGradient><linearGradient id="b" gradientUnits="userSpaceOnUse" x1="3.9316" x2="18.6218" y1="9.27862" y2="34.7214"><stop offset="0" stop-color="#1784d9"/><stop offset=".5" stop-color="#107ad5"/><stop offset="1" stop-color="#0a63c9"/></linearGradient><clipPath id="c"><path d="m.020874 0h44v44h-44z"/></clipPath><g clip-path="url(#c)"><path d="m44.0209 23.0235c.0025-.3437-.1754-.6643-.4684-.8439h-.0052l-.018-.0103-15.247-9.0252c-.0662-.0447-.1341-.085-.2046-.122-.5886-.3034-1.2882-.3034-1.8768 0-.0705.037-.1393.0773-.2046.122l-15.247 9.0243-.018.0103c-.4658.2897-.6085.9024-.3189 1.3682.0851.1375.2028.2518.3429.3334l15.2462 9.0252c.0662.0438.1341.085.2045.122.5887.3034 1.2882.3034 1.8769 0 .0705-.037.1384-.0773.2045-.122l15.2462-9.0252c.3051-.177.4907-.5044.4873-.8568z" fill="#0a2767"/><path d="m12.5274 16.9976h10.0057v9.1713h-10.0057zm29.4473-9.32337v-4.19547c.0241-1.0493-.8061-1.91899-1.8554-1.94391h-25.9643c-1.0493.02492-1.8794.89547-1.8554 1.94391v4.19547l15.3485 4.09317z" fill="#0364b8"/><path d="m12.2996 7.67422h10.2326v9.20908h-10.2326z" fill="#0078d4"/><path d="m32.7648 7.67422h-10.2326v9.20908l10.2326 9.209h9.2091v-9.2082z" fill="#28a8ea"/><path d="m22.5322 16.8842h10.2326v9.209h-10.2326z" fill="#0078d4"/><path d="m22.5322 26.0932h10.2326v9.2091h-10.2326z" fill="#0364b8"/><path d="m12.5273 26.1688h10.0057v8.3377h-10.0057z" fill="#14447d"/><path d="m32.7648 26.0932h9.209v9.2091h-9.209z" fill="#0078d4"/><path d="m43.5525 23.8244-.0197.0104-15.2462 8.5748c-.0662.0412-.1341.0799-.2045.1143-.2587.1229-.5406.1934-.8268.2045l-.8327-.4872c-.0705-.0353-.1384-.0748-.2045-.1178l-15.4516-8.818h-.0069l-.5053-.2828v17.3594c.0078 1.1585.9531 2.0909 2.1107 2.0831h29.5779c.0172 0 .0327-.0086.0516-.0086.2449-.0154.4855-.0661.7158-.1495.0997-.0421.196-.0919.2879-.1495.0688-.0387.1865-.1238.1865-.1238.5242-.3875.8345-1.0003.837-1.6525v-17.3577c-.0008.3317-.1804.6377-.4692.8009z" fill="url(#a)"/><path d="m43.2019 22.9548v1.0639l-15.9423 10.9768-16.5051-11.6824c0-.006-.0043-.0103-.0104-.0103l-1.51418-.9109v-.7675l.62391-.0103 1.31997.7571.031.0104.1125.0713s15.5126 8.8515 15.5539 8.8713l.5938.3481c.0516-.0207.1023-.0413.1641-.0611.031-.0206 15.4-8.6668 15.4-8.6668z" fill="#0a2767" opacity=".5"/><path d="m43.5525 23.8245-.0197.0111-15.2462 8.5749c-.0662.0412-.1341.0799-.2045.1143-.5921.2896-1.2848.2896-1.8769 0-.0705-.0344-.1384-.0731-.2045-.1143l-15.2462-8.5749-.0181-.0111c-.2947-.1599-.4786-.4667-.4821-.801v17.3585c.0078 1.1576.9522 2.0909 2.1098 2.0832h29.5479c1.1576.0077 2.1029-.9256 2.1097-2.0832v-17.3585c-.0008.3317-.1804.6377-.4692.801z" fill="#1490df"/><path d="m28.5083 32.2841-.2286.1281c-.0662.0421-.134.0808-.2045.116-.2518.1238-.5251.1959-.8044.2131l5.8008 6.8596 10.1191 2.438c.2776-.2097.4976-.4847.642-.8009z" fill="#000" opacity=".1"/><path d="m29.5421 31.7023-1.2615.709c-.0662.0421-.1341.0808-.2046.116-.2518.1238-.525.196-.8043.2132l2.7173 7.4928 13.2052 1.8022c.5199-.3902.8267-1.0029.8267-1.6535v-.2243z" fill="#000" opacity=".05"/><path d="m12.3925 42.4652h29.516c.4547.0025.8972-.141 1.2633-.4091l-16.7509-9.8123c-.0705-.0353-.1384-.0748-.2045-.1178l-15.4516-8.818h-.0069l-.5044-.2845v17.2992c-.0009 1.1817.9565 2.1416 2.139 2.1425z" fill="#28a8ea"/><g fill="#000"><path d="m24.5792 11.5964v21.8264c-.0017.7649-.4674 1.4532-1.1764 1.7394-.22.0945-.4564.1435-.6961.1435h-12.4532v-24.5609h2.0462v-1.02355h10.4061c1.0347.00344 1.8709.84135 1.8734 1.87515z" opacity=".1"/><path d="m23.5557 12.6199v21.8264c.0026.2475-.0498.4916-.1538.7159-.2844.7004-.9633 1.1602-1.7187 1.1636h-11.4297v-25.5819h11.4297c.2964-.0026.5895.0713.849.2148.6274.3163 1.0235.9591 1.0235 1.6612z" opacity=".2"/><path d="m23.5557 12.6199v19.7794c-.0051 1.033-.8396 1.8709-1.8725 1.8795h-11.4297v-23.5349h11.4297c.2964-.0026.5895.0713.849.2148.6274.3163 1.0235.9591 1.0235 1.6612z" opacity=".2"/><path d="m22.5322 12.6199v19.7794c-.0008 1.0347-.8379 1.8743-1.8725 1.8795h-10.4062v-23.5349h10.4062c1.0346.0009 1.8734.8396 1.8725 1.8743z" opacity=".2"/></g><path d="m1.89689 10.7439h18.76011c1.0356 0 1.8761.8396 1.8761 1.876v18.7602c0 1.0355-.8396 1.876-1.8761 1.876h-18.76011c-1.036407 0-1.876016-.8405-1.876016-1.876v-18.7602c0-1.0355.839609-1.876 1.876016-1.876z" fill="url(#b)"/><path d="m5.88356 18.6106c.46234-.9848 1.20828-1.809 2.14242-2.3667 1.03469-.5921 2.21292-.8877 3.40402-.8534 1.1043-.024 2.194.2561 3.1504.8096.8989.5362 1.6234 1.3217 2.084 2.261.5028 1.0355.7528 2.1751.7305 3.3258.0241 1.2022-.2329 2.3942-.752 3.4787-.4718.9737-1.2194 1.7867-2.1484 2.3401-.9934.5706-2.1235.8577-3.2682.831-1.1284.0275-2.24212-.2561-3.22008-.819-.90665-.5371-1.63969-1.3234-2.11235-2.2653-.50531-1.0201-.75883-2.1476-.73906-3.2854-.02063-1.1919.22859-2.3736.72875-3.4564zm2.28336 5.5567c.24664.6231.6643 1.1628 1.2057 1.5572.55086.385 1.21088.5835 1.88288.5672.7159.0284 1.4214-.177 2.0101-.5852.5345-.3936.941-.935 1.1705-1.5572.2569-.6952.3832-1.4317.3738-2.1725.0077-.7477-.1109-1.4919-.3524-2.2-.2131-.6394-.6067-1.2031-1.1335-1.6225-.574-.4271-1.277-.6445-1.992-.6136-.6866-.0181-1.36125.1822-1.92672.5723-.55.3962-.97625.9411-1.22805 1.571-.55859 1.4429-.56203 3.0422-.00859 4.4868z" fill="#fff"/><path d="m32.7648 7.67422h9.209v9.20908h-9.209z" fill="#50d9ff"/></g></svg>