<svg fill="none" height="400" viewBox="0 0 708 400" width="708" xmlns="http://www.w3.org/2000/svg" xmlns:xlink="http://www.w3.org/1999/xlink"><linearGradient id="a" gradientUnits="userSpaceOnUse" x1="681.721" x2="681.721" y1="267.573" y2="281.713"><stop offset="0" stop-color="#35b8f1"/><stop offset="1" stop-color="#28a8ea"/></linearGradient><linearGradient id="b" gradientUnits="userSpaceOnUse" x1="664.844" x2="675.528" y1="257.577" y2="276.081"><stop offset="0" stop-color="#1784d9"/><stop offset=".5" stop-color="#107ad5"/><stop offset="1" stop-color="#0a63c9"/></linearGradient><clipPath id="c"><path d="m0 0h708v400h-708z"/></clipPath><clipPath id="d"><path d="m664 175.171h28v20.9909h-28z"/></clipPath><clipPath id="e"><path d="m662 250.829h32v32h-32z"/></clipPath><g clip-path="url(#c)"><path d="m0 0h708v400h-708z" fill="#1e293b"/><rect fill="#fff" height="411" rx="4" width="350" x="20" y="20"/><rect fill="#9c36b5" height="30" rx="3" width="120" x="45" y="45"/><rect fill="#cbd5e1" height="8" rx="3" width="300" x="45" y="90"/><rect fill="#cbd5e1" height="8" rx="3" width="300" x="45" y="102"/><rect fill="#cbd5e1" height="8" rx="3" width="300" x="45" y="114"/><rect fill="#cbd5e1" height="8" rx="3" width="99" x="45" y="126"/><rect fill="#cbd5e1" height="8" rx="3" width="300" x="45" y="149"/><rect fill="#cbd5e1" height="8" rx="3" width="300" x="45" y="161"/><rect fill="#cbd5e1" height="8" rx="3" width="300" x="45" y="173"/><rect fill="#cbd5e1" height="8" rx="3" width="300" x="45" y="185"/><rect fill="#cbd5e1" height="8" rx="3" width="144" x="45" y="197"/><rect fill="#20c997" height="60" rx="3" width="60" x="82.5" y="220"/><rect fill="#cbd5e1" height="8" rx="3" width="135" x="45" y="284"/><rect fill="#cbd5e1" height="8" rx="3" width="135" x="45" y="296"/><rect fill="#cbd5e1" height="8" rx="3" width="60" x="45" y="308"/><rect fill="#9c36b5" height="15" rx="3" width="70" x="77.5" y="320"/><rect fill="#20c997" height="60" rx="3" width="60" x="247.5" y="220"/><rect fill="#cbd5e1" height="8" rx="3" width="135" x="210" y="284"/><rect fill="#cbd5e1" height="8" rx="3" width="135" x="210" y="296"/><rect fill="#cbd5e1" height="8" rx="3" width="60" x="210" y="308"/><rect fill="#9c36b5" height="15" rx="3" width="70" x="242.5" y="320"/><rect fill="#cbd5e1" height="8" rx="3" width="300" x="45" y="350"/><rect fill="#cbd5e1" height="8" rx="3" width="300" x="45" y="362"/><rect fill="#cbd5e1" height="8" rx="3" width="300" x="45" y="374"/><rect fill="#cbd5e1" height="8" rx="3" width="300" x="45" y="386"/><rect fill="#cbd5e1" height="8" rx="3" width="144" x="45" y="398"/><path d="m409.3 201.725-12.975-21.725-8.475 1.225 13.7 20.2-14.55 17 8.475 1.15z" fill="#fff"/><rect fill="#fff" height="447" rx="4" width="201" x="427" y="20"/><rect fill="#9c36b5" height="30" rx="3" width="90" x="452" y="45"/><g fill="#cbd5e1"><rect height="8" rx="3" width="151" x="452" y="90"/><rect height="8" rx="3" width="151" x="452" y="102"/><rect height="8" rx="3" width="151" x="452" y="114"/><rect height="8" rx="3" width="151" x="452" y="126"/><rect height="8" rx="3" width="71" x="452" y="138"/><rect height="8" rx="3" width="151" x="452" y="161"/><rect height="8" rx="3" width="151" x="452" y="173"/><rect height="8" rx="3" width="151" x="452" y="185"/><rect height="8" rx="3" width="151" x="452" y="197"/><rect height="8" rx="3" width="151" x="452" y="209"/><rect height="8" rx="3" width="151" x="452" y="221"/><rect height="8" rx="3" width="98" x="452" y="233"/></g><rect fill="#20c997" height="60" rx="3" width="60" x="452.25" y="256"/><rect fill="#cbd5e1" height="8" rx="3" width="60.5" x="452" y="320"/><rect fill="#cbd5e1" height="8" rx="3" width="60.5" x="452" y="332"/><rect fill="#cbd5e1" height="8" rx="3" width="40" x="452" y="344"/><rect fill="#9c36b5" height="15" rx="3" width="70" x="447.25" y="356"/><rect fill="#20c997" height="60" rx="3" width="60" x="542.75" y="256"/><rect fill="#cbd5e1" height="8" rx="3" width="60.5" x="542.5" y="320"/><rect fill="#cbd5e1" height="8" rx="3" width="60.5" x="542.5" y="332"/><rect fill="#cbd5e1" height="8" rx="3" width="40" x="542.5" y="344"/><rect fill="#9c36b5" height="15" rx="3" width="70" x="537.75" y="356"/><rect fill="#cbd5e1" height="8" rx="3" width="151" x="452" y="386"/><rect fill="#cbd5e1" height="8" rx="3" width="151" x="452" y="398"/><path d="m0 0h60v398h-60z" fill="#fff" fill-opacity=".1" transform="translate(648)"/><path clip-rule="evenodd" d="m686.192 106.443c-.037-3.798 3.098-5.62 3.238-5.71-1.762-2.578-4.508-2.9324-5.486-2.9722-2.336-.2359-4.558 1.3763-5.745 1.3763-1.184 0-3.013-1.3409-4.95-1.3054-2.546.0376-4.893 1.4809-6.206 3.7613-2.645 4.589-.676 11.392 1.902 15.113 1.259 1.822 2.761 3.87 4.734 3.797 1.899-.075 2.617-1.23 4.914-1.23s2.942 1.23 4.952 1.19c2.044-.037 3.339-1.858 4.59-3.686 1.447-2.115 2.041-4.16 2.077-4.265-.046-.021-3.986-1.53-4.025-6.067zm-3.775-11.148c1.046-1.2695 1.753-3.0316 1.56-4.7905-1.508.0615-3.336 1.0048-4.418 2.2726-.972 1.1255-1.821 2.9192-1.594 4.6421 1.684.1312 3.403-.8554 4.45-2.122z" fill="#cbd5e1" fill-rule="evenodd"/><path d="m668 137.171 2.667-2.666 5.333 5.333 9.333-9.333 2.667 2.666-12 12z" fill="#38d9a9"/><g clip-path="url(#d)"><path d="m665.905 196.162h4.452v-10.812l-6.357-4.765v13.69c0 1.044.861 1.887 1.905 1.887z" fill="#4285f4"/><path d="m685.64 196.162h4.453c1.064 0 1.905-.861 1.905-1.905v-13.672l-6.358 4.765z" fill="#34a853"/><path d="m685.64 177.085v8.265l6.36-4.765v-2.547c0-2.363-2.694-3.703-4.583-2.29z" fill="#fbbc04"/><path d="m670.357 185.35v-8.265l7.643 5.736 7.64-5.736v8.265l-7.64 5.717z" fill="#ea4335"/><path d="m664 178.038v2.547l6.36 4.765v-8.265l-1.778-1.337c-1.889-1.411-4.582-.055-4.582 2.29z" fill="#c5221f"/></g><path d="m668 212.829 2.667-2.667 5.333 5.333 9.333-9.333 2.667 2.667-12 12z" fill="#38d9a9"/><g clip-path="url(#e)"><path d="m694 267.573c.002-.25-.128-.483-.341-.614h-.004l-.013-.007-11.088-6.564c-.049-.032-.098-.062-.149-.089-.428-.22-.937-.22-1.365 0-.051.027-.101.057-.149.089l-11.089 6.563-.013.008c-.339.21-.442.656-.232.995.062.1.148.183.25.242l11.088 6.564c.048.032.097.062.149.089.428.22.936.22 1.365 0 .051-.027.1-.056.148-.089l11.088-6.564c.222-.128.357-.367.355-.623z" fill="#0a2767"/><path d="m671.096 263.191h7.277v6.67h-7.277zm21.416-6.781v-3.051c.017-.763-.586-1.396-1.349-1.414h-18.884c-.763.018-1.366.651-1.349 1.414v3.051l11.163 2.977z" fill="#0364b8"/><path d="m670.93 256.41h7.442v6.697h-7.442z" fill="#0078d4"/><path d="m685.814 256.41h-7.442v6.697l7.442 6.698h6.697v-6.697z" fill="#28a8ea"/><path d="m678.372 263.108h7.442v6.698h-7.442z" fill="#0078d4"/><path d="m678.372 269.806h7.442v6.697h-7.442z" fill="#0364b8"/><path d="m671.096 269.861h7.277v6.063h-7.277z" fill="#14447d"/><path d="m685.814 269.806h6.697v6.697h-6.697z" fill="#0078d4"/><path d="m693.659 268.156-.014.007-11.088 6.236c-.048.03-.098.059-.149.084-.188.089-.393.14-.601.148l-.606-.354c-.051-.026-.1-.054-.149-.086l-11.237-6.413h-.005l-.368-.205v12.625c.006.842.694 1.52 1.535 1.515h21.512c.012 0 .023-.007.037-.007.178-.011.353-.048.521-.108.072-.031.142-.067.209-.109.05-.028.136-.09.136-.09.381-.282.607-.728.608-1.202v-12.624c0 .241-.131.464-.341.583z" fill="url(#a)"/><path d="m693.404 267.523v.774l-11.594 7.983-12.004-8.496c0-.005-.003-.008-.007-.008l-1.102-.662v-.558l.454-.008.96.551.023.007.081.052s11.282 6.438 11.312 6.452l.432.253c.038-.015.075-.03.12-.044.022-.015 11.2-6.303 11.2-6.303z" fill="#0a2767" opacity=".5"/><path d="m693.659 268.156-.014.008-11.088 6.236c-.048.03-.098.058-.149.083-.431.211-.934.211-1.365 0-.051-.025-.101-.053-.149-.083l-11.088-6.236-.013-.008c-.214-.117-.348-.34-.351-.583v12.624c.006.842.693 1.521 1.535 1.515h21.489c.842.006 1.529-.673 1.534-1.515v-12.624c0 .241-.131.464-.341.583z" fill="#1490df"/><path d="m682.718 274.308-.166.093c-.048.031-.097.059-.149.085-.183.09-.382.142-.585.155l4.219 4.988 7.359 1.773c.202-.152.362-.352.467-.582z" fill="#000" opacity=".1"/><path d="m683.47 273.885-.917.516c-.049.03-.098.058-.149.084-.183.09-.382.143-.585.155l1.976 5.449 9.604 1.311c.378-.284.601-.729.601-1.202v-.164z" fill="#000" opacity=".05"/><path d="m670.998 281.712h21.466c.33.002.652-.102.919-.297l-12.183-7.136c-.051-.026-.101-.055-.149-.086l-11.237-6.413h-.005l-.367-.207v12.581c-.001.86.696 1.558 1.556 1.558z" fill="#28a8ea"/><g fill="#000"><path d="m679.861 259.262v15.874c-.002.557-.34 1.057-.856 1.265-.16.069-.332.105-.506.105h-9.057v-17.863h1.488v-.744h7.568c.753.002 1.361.612 1.363 1.363z" opacity=".1"/><path d="m679.116 260.007v15.874c.002.18-.036.357-.112.52-.206.51-.7.844-1.25.847h-8.312v-18.605h8.312c.216-.002.429.051.618.156.456.23.744.697.744 1.208z" opacity=".2"/><path d="m679.116 260.007v14.385c-.003.751-.61 1.361-1.362 1.367h-8.312v-17.116h8.312c.216-.002.429.051.618.156.456.23.744.697.744 1.208z" opacity=".2"/><path d="m678.372 260.007v14.385c-.001.752-.609 1.363-1.362 1.367h-7.568v-17.117h7.568c.753.001 1.363.611 1.362 1.364z" opacity=".2"/></g><path d="m663.364 258.642h13.644c.753 0 1.364.611 1.364 1.365v13.644c0 .753-.61 1.364-1.364 1.364h-13.644c-.753 0-1.364-.611-1.364-1.364v-13.644c0-.753.611-1.365 1.364-1.365z" fill="url(#b)"/><path d="m666.264 264.364c.336-.717.879-1.316 1.558-1.722.752-.43 1.609-.645 2.476-.62.803-.018 1.595.186 2.291.589.654.39 1.18.961 1.515 1.644.366.753.548 1.582.532 2.419.017.874-.17 1.741-.547 2.53-.343.708-.887 1.299-1.563 1.702-.722.415-1.544.623-2.377.604-.82.02-1.63-.186-2.341-.596-.66-.39-1.193-.962-1.537-1.647-.367-.742-.552-1.562-.537-2.39-.015-.866.166-1.726.53-2.513zm1.66 4.041c.18.453.484.846.877 1.132.401.28.881.425 1.37.413.52.021 1.033-.129 1.462-.426.388-.286.684-.68.851-1.132.187-.506.279-1.041.272-1.58.005-.544-.081-1.085-.257-1.6-.155-.465-.441-.875-.824-1.18-.417-.311-.929-.469-1.449-.446-.499-.014-.99.132-1.401.416-.4.288-.71.684-.893 1.142-.406 1.05-.409 2.213-.006 3.263z" fill="#fff"/><path d="m685.814 256.41h6.697v6.697h-6.697z" fill="#50d9ff"/></g><path d="m668 299.495 2.667-2.666 5.333 5.333 9.333-9.333 2.667 2.666-12 12z" fill="#38d9a9"/></g></svg>