<svg title="Apple logo." width="42" height="42" viewBox="0 0 42 42" fill="none" xmlns="http://www.w3.org/2000/svg">
<g clip-path="url(#clip0_118_24)">
<path fill-rule="evenodd" clip-rule="evenodd" d="M32.4701 22.3138C32.4174 16.9965 36.8068 14.4449 37.0029 14.3186C34.5358 10.7097 30.692 10.2136 29.3224 10.1578C26.0514 9.82759 22.9409 12.0847 21.2791 12.0847C19.6218 12.0847 17.0609 10.2074 14.3488 10.257C10.784 10.3097 7.49754 12.3304 5.65984 15.5231C1.95629 21.9487 4.71254 31.4724 8.32231 36.6828C10.0857 39.2344 12.1885 42.1008 14.9502 41.9984C17.6088 41.8938 18.6149 40.2762 21.8309 40.2762C25.0461 40.2762 25.9491 41.9985 28.7635 41.9434C31.6252 41.8907 33.4381 39.3422 35.1898 36.782C37.2168 33.821 38.0477 30.9578 38.0981 30.8105C38.0345 30.7819 32.5181 28.6689 32.4623 22.3161L32.47 22.3138H32.4701ZM27.1839 6.70542C28.6488 4.9281 29.6386 2.46093 29.3681 -0.00158691C27.2575 0.0844475 24.698 1.40522 23.1828 3.18024C21.8224 4.75603 20.6342 7.26737 20.952 9.67948C23.3091 9.86323 25.7158 8.48195 27.1815 6.7085L27.1839 6.70542V6.70542Z" fill="#64748B"/></g><defs><clipPath id="clip0_118_24"><rect width="42" height="42" fill="white"/></clipPath></defs></svg>
