<svg title="Gmail logo." width="49" height="36" viewBox="0 0 49 36" fill="none" xmlns="http://www.w3.org/2000/svg"><g clip-path="url(#clip0_118_49)"><path d="M3.26704 36H10.9032V17.4568L0 9.28528V32.7642C0 34.5541 1.4772 36 3.26704 36Z" fill="#4285F4"/><path d="M37.1138 36H44.7499C46.5749 36 48.0169 34.5228 48.0169 32.733V9.28528L37.1138 17.4568V36Z" fill="#34A853"/><path d="M37.1138 3.28269V17.4568L48.0208 9.28529V4.91621C48.0208 0.863669 43.4017 -1.4342 40.162 0.988723L37.1138 3.28269Z" fill="#FBBC04"/><path d="M10.9032 17.4568V3.28268L24.0104 13.119L37.1138 3.28268V17.4568L24.0104 27.2618L10.9032 17.4568Z" fill="#EA4335"/><path d="M0 4.9162V9.28529L10.9071 17.4568V3.28268L7.85888 0.988719C4.61919 -1.4303 0 0.894929 0 4.9162Z" fill="#C5221F"/></g><defs><clipPath id="clip0_118_49"><rect width="48.0208" height="36" fill="white"/></clipPath></defs></svg>
