<svg width="335" height="60" viewBox="0 0 335 60" fill="none" xmlns="http://www.w3.org/2000/svg">
<rect width="144" height="30" transform="translate(15 15)" fill="#212529"/>
<path d="M27.98 23.4H29.51V36.63L19.97 26.622V36H18.44V22.77L27.98 32.778V23.4ZM31.587 31.86C31.587 31.02 31.773 30.276 32.145 29.628C32.529 28.98 33.045 28.47 33.693 28.098C34.341 27.726 35.067 27.54 35.871 27.54C36.687 27.54 37.413 27.726 38.049 28.098C38.697 28.47 39.207 28.98 39.579 29.628C39.963 30.276 40.155 31.02 40.155 31.86C40.155 32.688 39.963 33.432 39.579 34.092C39.207 34.74 38.697 35.25 38.049 35.622C37.413 35.994 36.687 36.18 35.871 36.18C35.067 36.18 34.341 35.994 33.693 35.622C33.045 35.25 32.529 34.74 32.145 34.092C31.773 33.432 31.587 32.688 31.587 31.86ZM33.045 31.86C33.045 32.436 33.165 32.946 33.405 33.39C33.657 33.834 33.993 34.188 34.413 34.452C34.845 34.704 35.331 34.83 35.871 34.83C36.411 34.83 36.891 34.704 37.311 34.452C37.743 34.188 38.079 33.834 38.319 33.39C38.571 32.946 38.697 32.436 38.697 31.86C38.697 31.284 38.571 30.774 38.319 30.33C38.079 29.874 37.743 29.52 37.311 29.268C36.891 29.016 36.411 28.89 35.871 28.89C35.331 28.89 34.845 29.016 34.413 29.268C33.993 29.52 33.657 29.874 33.405 30.33C33.165 30.774 33.045 31.284 33.045 31.86ZM48.0877 32.184C48.5077 32.952 48.9757 33.57 49.4917 34.038C50.0197 34.506 50.6617 34.74 51.4177 34.74C52.0897 34.74 52.6297 34.554 53.0377 34.182C53.4457 33.81 53.6497 33.336 53.6497 32.76C53.6497 32.196 53.5177 31.746 53.2537 31.41C52.9897 31.074 52.6417 30.804 52.2097 30.6C51.7897 30.384 51.3397 30.192 50.8597 30.024C50.5477 29.916 50.1997 29.778 49.8157 29.61C49.4317 29.43 49.0657 29.208 48.7177 28.944C48.3697 28.668 48.0817 28.332 47.8537 27.936C47.6377 27.54 47.5297 27.054 47.5297 26.478C47.5297 25.854 47.6857 25.296 47.9977 24.804C48.3097 24.312 48.7417 23.928 49.2937 23.652C49.8457 23.364 50.4757 23.22 51.1837 23.22C51.8677 23.22 52.4617 23.352 52.9657 23.616C53.4817 23.868 53.9197 24.198 54.2797 24.606C54.6397 25.002 54.9217 25.422 55.1257 25.866L53.8117 26.622C53.6557 26.31 53.4577 26.004 53.2177 25.704C52.9777 25.404 52.6837 25.158 52.3357 24.966C51.9997 24.774 51.5857 24.678 51.0937 24.678C50.4097 24.678 49.9117 24.846 49.5997 25.182C49.2877 25.506 49.1317 25.872 49.1317 26.28C49.1317 26.808 49.3417 27.27 49.7617 27.666C50.1817 28.062 50.9437 28.452 52.0477 28.836C52.3837 28.956 52.7377 29.112 53.1097 29.304C53.4817 29.496 53.8237 29.742 54.1357 30.042C54.4597 30.33 54.7237 30.684 54.9277 31.104C55.1317 31.512 55.2337 32.004 55.2337 32.58C55.2337 33.312 55.0477 33.948 54.6757 34.488C54.3157 35.028 53.8417 35.448 53.2537 35.748C52.6657 36.036 52.0357 36.18 51.3637 36.18C50.6797 36.18 50.0437 36.036 49.4557 35.748C48.8797 35.448 48.3697 35.058 47.9257 34.578C47.4937 34.086 47.1397 33.564 46.8637 33.012L48.0877 32.184ZM56.131 27.72H57.481V24.84H58.921V27.72H60.271V29.07H58.921V36H57.481V29.07H56.131V27.72ZM68.2852 27.72L62.8852 39.96H61.2652L63.5332 34.83L60.3652 27.72H62.0752L64.3972 33.426L66.6652 27.72H68.2852ZM69.643 21.96H71.083V36H69.643V21.96ZM76.9954 36.18C76.2274 36.18 75.5434 36 74.9434 35.64C74.3554 35.268 73.8934 34.758 73.5574 34.11C73.2334 33.462 73.0714 32.712 73.0714 31.86C73.0714 30.996 73.2394 30.24 73.5754 29.592C73.9234 28.944 74.4034 28.44 75.0154 28.08C75.6394 27.72 76.3594 27.54 77.1754 27.54C78.3874 27.54 79.3414 27.918 80.0374 28.674C80.7334 29.43 81.0814 30.468 81.0814 31.788C81.0814 31.872 81.0754 31.962 81.0634 32.058C81.0634 32.142 81.0634 32.196 81.0634 32.22H74.5474C74.6074 33.048 74.8654 33.69 75.3214 34.146C75.7774 34.602 76.3954 34.83 77.1754 34.83C78.3034 34.83 79.1674 34.332 79.7674 33.336L80.9374 34.074C80.0734 35.478 78.7594 36.18 76.9954 36.18ZM77.1754 28.8C76.4674 28.8 75.8914 28.992 75.4474 29.376C75.0034 29.748 74.7214 30.288 74.6014 30.996H79.5154C79.4674 30.336 79.2274 29.808 78.7954 29.412C78.3754 29.004 77.8354 28.8 77.1754 28.8ZM83.3971 33.462C83.6491 33.846 83.9551 34.176 84.3151 34.452C84.6871 34.728 85.1311 34.866 85.6471 34.866C86.0551 34.866 86.3731 34.776 86.6011 34.596C86.8411 34.404 86.9611 34.146 86.9611 33.822C86.9611 33.534 86.8651 33.294 86.6731 33.102C86.4931 32.898 86.2591 32.73 85.9711 32.598C85.6831 32.454 85.3771 32.322 85.0531 32.202C84.6931 32.058 84.3271 31.89 83.9551 31.698C83.5951 31.494 83.2891 31.236 83.0371 30.924C82.7971 30.6 82.6771 30.198 82.6771 29.718C82.6771 29.226 82.8031 28.818 83.0551 28.494C83.3191 28.17 83.6551 27.93 84.0631 27.774C84.4831 27.618 84.9151 27.54 85.3591 27.54C86.0191 27.54 86.6191 27.696 87.1591 28.008C87.6991 28.32 88.0951 28.704 88.3471 29.16L87.1951 29.898C86.9671 29.586 86.6791 29.328 86.3311 29.124C85.9951 28.92 85.6111 28.818 85.1791 28.818C84.8791 28.818 84.6211 28.884 84.4051 29.016C84.1891 29.148 84.0811 29.352 84.0811 29.628C84.0811 29.964 84.2551 30.24 84.6031 30.456C84.9631 30.66 85.3651 30.852 85.8091 31.032C86.2891 31.224 86.7271 31.434 87.1231 31.662C87.5191 31.878 87.8311 32.142 88.0591 32.454C88.2991 32.766 88.4191 33.168 88.4191 33.66C88.4191 34.38 88.1551 34.98 87.6271 35.46C87.1111 35.94 86.4271 36.18 85.5751 36.18C85.0231 36.18 84.5251 36.084 84.0811 35.892C83.6371 35.688 83.2591 35.43 82.9471 35.118C82.6471 34.806 82.4191 34.488 82.2631 34.164L83.3971 33.462ZM94.9913 31.86C94.9913 31.02 95.1773 30.276 95.5493 29.628C95.9333 28.98 96.4493 28.47 97.0973 28.098C97.7453 27.726 98.4713 27.54 99.2753 27.54C100.091 27.54 100.817 27.726 101.453 28.098C102.101 28.47 102.611 28.98 102.983 29.628C103.367 30.276 103.559 31.02 103.559 31.86C103.559 32.688 103.367 33.432 102.983 34.092C102.611 34.74 102.101 35.25 101.453 35.622C100.817 35.994 100.091 36.18 99.2753 36.18C98.4713 36.18 97.7453 35.994 97.0973 35.622C96.4493 35.25 95.9333 34.74 95.5493 34.092C95.1773 33.432 94.9913 32.688 94.9913 31.86ZM96.4493 31.86C96.4493 32.436 96.5693 32.946 96.8093 33.39C97.0613 33.834 97.3973 34.188 97.8173 34.452C98.2493 34.704 98.7353 34.83 99.2753 34.83C99.8153 34.83 100.295 34.704 100.715 34.452C101.147 34.188 101.483 33.834 101.723 33.39C101.975 32.946 102.101 32.436 102.101 31.86C102.101 31.284 101.975 30.774 101.723 30.33C101.483 29.874 101.147 29.52 100.715 29.268C100.295 29.016 99.8153 28.89 99.2753 28.89C98.7353 28.89 98.2493 29.016 97.8173 29.268C97.3973 29.52 97.0613 29.874 96.8093 30.33C96.5693 30.774 96.4493 31.284 96.4493 31.86ZM110.848 30.96C110.848 29.58 110.26 28.89 109.084 28.89C108.46 28.89 107.95 29.082 107.554 29.466C107.17 29.85 106.978 30.348 106.978 30.96V36H105.538V27.72H106.978V29.016C107.518 28.032 108.34 27.54 109.444 27.54C110.32 27.54 111.01 27.834 111.514 28.422C112.03 28.998 112.288 29.784 112.288 30.78V36H110.848V30.96ZM122.587 31.284L129.391 34.29V35.73L120.211 31.77V30.96L129.391 27V28.44L122.587 31.284ZM130.645 27.72H131.995V24.84H133.435V27.72H134.785V29.07H133.435V36H131.995V29.07H130.645V27.72ZM135.509 31.86C135.509 30.96 135.695 30.192 136.067 29.556C136.439 28.908 136.937 28.41 137.561 28.062C138.185 27.714 138.869 27.54 139.613 27.54C140.225 27.54 140.771 27.678 141.251 27.954C141.743 28.23 142.139 28.626 142.439 29.142V21.96H143.879V36H142.439V34.578C142.139 35.094 141.743 35.49 141.251 35.766C140.771 36.042 140.225 36.18 139.613 36.18C138.869 36.18 138.185 36.006 137.561 35.658C136.937 35.31 136.439 34.812 136.067 34.164C135.695 33.516 135.509 32.748 135.509 31.86ZM136.967 31.86C136.967 32.496 137.093 33.036 137.345 33.48C137.609 33.924 137.957 34.26 138.389 34.488C138.821 34.716 139.289 34.83 139.793 34.83C140.213 34.83 140.627 34.716 141.035 34.488C141.443 34.26 141.779 33.924 142.043 33.48C142.307 33.036 142.439 32.496 142.439 31.86C142.439 31.224 142.307 30.684 142.043 30.24C141.779 29.796 141.443 29.46 141.035 29.232C140.627 29.004 140.213 28.89 139.793 28.89C139.289 28.89 138.821 29.004 138.389 29.232C137.957 29.46 137.609 29.796 137.345 30.24C137.093 30.684 136.967 31.224 136.967 31.86ZM153.119 31.446L146.315 28.44V27L155.495 30.96V31.77L146.315 35.73V34.29L153.119 31.446Z" fill="white"/>
<rect x="1" y="1" width="172" height="58" stroke="#212529" stroke-width="2"/>
<rect x="191" y="1" width="143" height="58" fill="#212529"/>
<rect width="115" height="30" transform="translate(205 15)" fill="#212529"/>
<path d="M208.908 32.184C209.328 32.952 209.796 33.57 210.312 34.038C210.84 34.506 211.482 34.74 212.238 34.74C212.91 34.74 213.45 34.554 213.858 34.182C214.266 33.81 214.47 33.336 214.47 32.76C214.47 32.196 214.338 31.746 214.074 31.41C213.81 31.074 213.462 30.804 213.03 30.6C212.61 30.384 212.16 30.192 211.68 30.024C211.368 29.916 211.02 29.778 210.636 29.61C210.252 29.43 209.886 29.208 209.538 28.944C209.19 28.668 208.902 28.332 208.674 27.936C208.458 27.54 208.35 27.054 208.35 26.478C208.35 25.854 208.506 25.296 208.818 24.804C209.13 24.312 209.562 23.928 210.114 23.652C210.666 23.364 211.296 23.22 212.004 23.22C212.688 23.22 213.282 23.352 213.786 23.616C214.302 23.868 214.74 24.198 215.1 24.606C215.46 25.002 215.742 25.422 215.946 25.866L214.632 26.622C214.476 26.31 214.278 26.004 214.038 25.704C213.798 25.404 213.504 25.158 213.156 24.966C212.82 24.774 212.406 24.678 211.914 24.678C211.23 24.678 210.732 24.846 210.42 25.182C210.108 25.506 209.952 25.872 209.952 26.28C209.952 26.808 210.162 27.27 210.582 27.666C211.002 28.062 211.764 28.452 212.868 28.836C213.204 28.956 213.558 29.112 213.93 29.304C214.302 29.496 214.644 29.742 214.956 30.042C215.28 30.33 215.544 30.684 215.748 31.104C215.952 31.512 216.054 32.004 216.054 32.58C216.054 33.312 215.868 33.948 215.496 34.488C215.136 35.028 214.662 35.448 214.074 35.748C213.486 36.036 212.856 36.18 212.184 36.18C211.5 36.18 210.864 36.036 210.276 35.748C209.7 35.448 209.19 35.058 208.746 34.578C208.314 34.086 207.96 33.564 207.684 33.012L208.908 32.184ZM216.951 27.72H218.301V24.84H219.741V27.72H221.091V29.07H219.741V36H218.301V29.07H216.951V27.72ZM229.106 27.72L223.706 39.96H222.086L224.354 34.83L221.186 27.72H222.896L225.218 33.426L227.486 27.72H229.106ZM230.463 21.96H231.903V36H230.463V21.96ZM237.816 36.18C237.048 36.18 236.364 36 235.764 35.64C235.176 35.268 234.714 34.758 234.378 34.11C234.054 33.462 233.892 32.712 233.892 31.86C233.892 30.996 234.06 30.24 234.396 29.592C234.744 28.944 235.224 28.44 235.836 28.08C236.46 27.72 237.18 27.54 237.996 27.54C239.208 27.54 240.162 27.918 240.858 28.674C241.554 29.43 241.902 30.468 241.902 31.788C241.902 31.872 241.896 31.962 241.884 32.058C241.884 32.142 241.884 32.196 241.884 32.22H235.368C235.428 33.048 235.686 33.69 236.142 34.146C236.598 34.602 237.216 34.83 237.996 34.83C239.124 34.83 239.988 34.332 240.588 33.336L241.758 34.074C240.894 35.478 239.58 36.18 237.816 36.18ZM237.996 28.8C237.288 28.8 236.712 28.992 236.268 29.376C235.824 29.748 235.542 30.288 235.422 30.996H240.336C240.288 30.336 240.048 29.808 239.616 29.412C239.196 29.004 238.656 28.8 237.996 28.8ZM244.217 33.462C244.469 33.846 244.775 34.176 245.135 34.452C245.507 34.728 245.951 34.866 246.467 34.866C246.875 34.866 247.193 34.776 247.421 34.596C247.661 34.404 247.781 34.146 247.781 33.822C247.781 33.534 247.685 33.294 247.493 33.102C247.313 32.898 247.079 32.73 246.791 32.598C246.503 32.454 246.197 32.322 245.873 32.202C245.513 32.058 245.147 31.89 244.775 31.698C244.415 31.494 244.109 31.236 243.857 30.924C243.617 30.6 243.497 30.198 243.497 29.718C243.497 29.226 243.623 28.818 243.875 28.494C244.139 28.17 244.475 27.93 244.883 27.774C245.303 27.618 245.735 27.54 246.179 27.54C246.839 27.54 247.439 27.696 247.979 28.008C248.519 28.32 248.915 28.704 249.167 29.16L248.015 29.898C247.787 29.586 247.499 29.328 247.151 29.124C246.815 28.92 246.431 28.818 245.999 28.818C245.699 28.818 245.441 28.884 245.225 29.016C245.009 29.148 244.901 29.352 244.901 29.628C244.901 29.964 245.075 30.24 245.423 30.456C245.783 30.66 246.185 30.852 246.629 31.032C247.109 31.224 247.547 31.434 247.943 31.662C248.339 31.878 248.651 32.142 248.879 32.454C249.119 32.766 249.239 33.168 249.239 33.66C249.239 34.38 248.975 34.98 248.447 35.46C247.931 35.94 247.247 36.18 246.395 36.18C245.843 36.18 245.345 36.084 244.901 35.892C244.457 35.688 244.079 35.43 243.767 35.118C243.467 34.806 243.239 34.488 243.083 34.164L244.217 33.462ZM255.812 31.86C255.812 31.02 255.998 30.276 256.37 29.628C256.754 28.98 257.27 28.47 257.918 28.098C258.566 27.726 259.292 27.54 260.096 27.54C260.912 27.54 261.638 27.726 262.274 28.098C262.922 28.47 263.432 28.98 263.804 29.628C264.188 30.276 264.38 31.02 264.38 31.86C264.38 32.688 264.188 33.432 263.804 34.092C263.432 34.74 262.922 35.25 262.274 35.622C261.638 35.994 260.912 36.18 260.096 36.18C259.292 36.18 258.566 35.994 257.918 35.622C257.27 35.25 256.754 34.74 256.37 34.092C255.998 33.432 255.812 32.688 255.812 31.86ZM257.27 31.86C257.27 32.436 257.39 32.946 257.63 33.39C257.882 33.834 258.218 34.188 258.638 34.452C259.07 34.704 259.556 34.83 260.096 34.83C260.636 34.83 261.116 34.704 261.536 34.452C261.968 34.188 262.304 33.834 262.544 33.39C262.796 32.946 262.922 32.436 262.922 31.86C262.922 31.284 262.796 30.774 262.544 30.33C262.304 29.874 261.968 29.52 261.536 29.268C261.116 29.016 260.636 28.89 260.096 28.89C259.556 28.89 259.07 29.016 258.638 29.268C258.218 29.52 257.882 29.874 257.63 30.33C257.39 30.774 257.27 31.284 257.27 31.86ZM271.668 30.96C271.668 29.58 271.08 28.89 269.904 28.89C269.28 28.89 268.77 29.082 268.374 29.466C267.99 29.85 267.798 30.348 267.798 30.96V36H266.358V27.72H267.798V29.016C268.338 28.032 269.16 27.54 270.264 27.54C271.14 27.54 271.83 27.834 272.334 28.422C272.85 28.998 273.108 29.784 273.108 30.78V36H271.668V30.96ZM283.407 31.284L290.211 34.29V35.73L281.031 31.77V30.96L290.211 27V28.44L283.407 31.284ZM291.465 27.72H292.815V24.84H294.255V27.72H295.605V29.07H294.255V36H292.815V29.07H291.465V27.72ZM296.329 31.86C296.329 30.96 296.515 30.192 296.887 29.556C297.259 28.908 297.757 28.41 298.381 28.062C299.005 27.714 299.689 27.54 300.433 27.54C301.045 27.54 301.591 27.678 302.071 27.954C302.563 28.23 302.959 28.626 303.259 29.142V21.96H304.699V36H303.259V34.578C302.959 35.094 302.563 35.49 302.071 35.766C301.591 36.042 301.045 36.18 300.433 36.18C299.689 36.18 299.005 36.006 298.381 35.658C297.757 35.31 297.259 34.812 296.887 34.164C296.515 33.516 296.329 32.748 296.329 31.86ZM297.787 31.86C297.787 32.496 297.913 33.036 298.165 33.48C298.429 33.924 298.777 34.26 299.209 34.488C299.641 34.716 300.109 34.83 300.613 34.83C301.033 34.83 301.447 34.716 301.855 34.488C302.263 34.26 302.599 33.924 302.863 33.48C303.127 33.036 303.259 32.496 303.259 31.86C303.259 31.224 303.127 30.684 302.863 30.24C302.599 29.796 302.263 29.46 301.855 29.232C301.447 29.004 301.033 28.89 300.613 28.89C300.109 28.89 299.641 29.004 299.209 29.232C298.777 29.46 298.429 29.796 298.165 30.24C297.913 30.684 297.787 31.224 297.787 31.86ZM313.939 31.446L307.135 28.44V27L316.315 30.96V31.77L307.135 35.73V34.29L313.939 31.446Z" fill="white"/>
<rect x="191" y="1" width="143" height="58" stroke="#212529" stroke-width="2"/>
</svg>
