<svg title="Outlook logo." width="45" height="44" viewBox="0 0 45 44" fill="none" xmlns="http://www.w3.org/2000/svg"><g clip-path="url(#clip0_118_26)"><path d="M44.0209 23.0235C44.0234 22.6798 43.8455 22.3592 43.5525 22.1796H43.5473L43.5293 22.1693L28.2823 13.1441C28.2161 13.0994 28.1482 13.0591 28.0777 13.0221C27.4891 12.7187 26.7895 12.7187 26.2009 13.0221C26.1304 13.0591 26.0616 13.0994 25.9963 13.1441L10.7493 22.1684L10.7313 22.1787C10.2655 22.4684 10.1228 23.0811 10.4124 23.5469C10.4975 23.6844 10.6152 23.7987 10.7553 23.8803L26.0015 32.9055C26.0677 32.9493 26.1356 32.9905 26.206 33.0275C26.7947 33.3309 27.4942 33.3309 28.0829 33.0275C28.1534 32.9905 28.2213 32.9502 28.2874 32.9055L43.5336 23.8803C43.8387 23.7033 44.0243 23.3759 44.0209 23.0235Z" fill="#0A2767"/><path d="M12.5274 16.9976H22.5331V26.1689H12.5274V16.9976ZM41.9747 7.67423V3.47876C41.9988 2.42946 41.1686 1.55977 40.1193 1.53485H14.155C13.1057 1.55977 12.2756 2.43032 12.2996 3.47876V7.67423L27.6481 11.7674L41.9747 7.67423Z" fill="#0364B8"/><path d="M12.2996 7.67422H22.5322V16.8833H12.2996V7.67422Z" fill="#0078D4"/><path d="M32.7648 7.67422H22.5322V16.8833L32.7648 26.0923H41.9739V16.8841L32.7648 7.67422Z" fill="#28A8EA"/><path d="M22.5322 16.8842H32.7648V26.0932H22.5322V16.8842Z" fill="#0078D4"/><path d="M22.5322 26.0932H32.7648V35.3023H22.5322V26.0932Z" fill="#0364B8"/><path d="M12.5273 26.1688H22.533V34.5065H12.5273V26.1688Z" fill="#14447D"/><path d="M32.7648 26.0932H41.9738V35.3023H32.7648V26.0932Z" fill="#0078D4"/><path d="M43.5525 23.8244L43.5328 23.8348L28.2866 32.4096C28.2204 32.4508 28.1525 32.4895 28.0821 32.5239C27.8234 32.6468 27.5415 32.7173 27.2553 32.7284L26.4226 32.2412C26.3521 32.2059 26.2842 32.1664 26.2181 32.1234L10.7665 23.3054H10.7596L10.2543 23.0226V40.382C10.2621 41.5405 11.2074 42.4729 12.365 42.4651H41.9429C41.9601 42.4651 41.9756 42.4565 41.9945 42.4565C42.2394 42.4411 42.48 42.3904 42.7103 42.307C42.81 42.2649 42.9063 42.2151 42.9982 42.1575C43.067 42.1188 43.1847 42.0337 43.1847 42.0337C43.7089 41.6462 44.0192 41.0334 44.0217 40.3812V23.0235C44.0209 23.3552 43.8413 23.6612 43.5525 23.8244Z" fill="url(#paint0_linear_118_26)"/><path opacity="0.5" d="M43.2019 22.9548V24.0187L27.2596 34.9955L10.7545 23.3131C10.7545 23.3071 10.7502 23.3028 10.7441 23.3028L9.22992 22.3919V21.6244L9.85383 21.6141L11.1738 22.3712L11.2048 22.3816L11.3173 22.4529C11.3173 22.4529 26.8299 31.3044 26.8712 31.3242L27.465 31.6723C27.5166 31.6516 27.5673 31.631 27.6291 31.6112C27.6601 31.5906 43.0291 22.9444 43.0291 22.9444L43.2019 22.9548Z" fill="#0A2767"/><path d="M43.5525 23.8245L43.5328 23.8356L28.2866 32.4105C28.2204 32.4517 28.1525 32.4904 28.0821 32.5248C27.49 32.8144 26.7973 32.8144 26.2052 32.5248C26.1347 32.4904 26.0668 32.4517 26.0007 32.4105L10.7545 23.8356L10.7364 23.8245C10.4417 23.6646 10.2578 23.3578 10.2543 23.0235V40.382C10.2621 41.5396 11.2065 42.4729 12.3641 42.4652H41.912C43.0696 42.4729 44.0149 41.5396 44.0217 40.382V23.0235C44.0209 23.3552 43.8413 23.6612 43.5525 23.8245Z" fill="#1490DF"/><path opacity="0.1" d="M28.5083 32.2841L28.2797 32.4122C28.2135 32.4543 28.1457 32.493 28.0752 32.5282C27.8234 32.652 27.5501 32.7241 27.2708 32.7413L33.0716 39.6009L43.1907 42.0389C43.4683 41.8292 43.6883 41.5542 43.8327 41.238L28.5083 32.2841Z" fill="black"/><path opacity="0.05" d="M29.5421 31.7023L28.2806 32.4113C28.2144 32.4534 28.1465 32.4921 28.076 32.5273C27.8242 32.6511 27.551 32.7233 27.2717 32.7405L29.989 40.2333L43.1942 42.0355C43.7141 41.6453 44.0209 41.0326 44.0209 40.382V40.1577L29.5421 31.7023Z" fill="black"/><path d="M12.3925 42.4652H41.9085C42.3632 42.4677 42.8057 42.3242 43.1718 42.0561L26.4209 32.2438C26.3504 32.2085 26.2825 32.169 26.2164 32.126L10.7648 23.308H10.7579L10.2535 23.0235V40.3227C10.2526 41.5044 11.21 42.4643 12.3925 42.4652Z" fill="#28A8EA"/><path opacity="0.1" d="M24.5792 11.5964V33.4228C24.5775 34.1877 24.1118 34.876 23.4028 35.1622C23.1828 35.2567 22.9464 35.3057 22.7067 35.3057H10.2535V10.7448H12.2997V9.72125H22.7058C23.7405 9.72469 24.5767 10.5626 24.5792 11.5964Z" fill="black"/><path opacity="0.2" d="M23.5557 12.6199V34.4463C23.5583 34.6938 23.5059 34.9379 23.4019 35.1622C23.1175 35.8626 22.4386 36.3224 21.6832 36.3258H10.2535V10.7439H21.6832C21.9796 10.7413 22.2727 10.8152 22.5322 10.9587C23.1596 11.275 23.5557 11.9178 23.5557 12.6199Z" fill="black"/><path opacity="0.2" d="M23.5557 12.6199V32.3993C23.5506 33.4323 22.7161 34.2702 21.6832 34.2788H10.2535V10.7439H21.6832C21.9796 10.7413 22.2727 10.8152 22.5322 10.9587C23.1596 11.275 23.5557 11.9178 23.5557 12.6199Z" fill="black"/><path opacity="0.2" d="M22.5322 12.6199V32.3993C22.5314 33.434 21.6943 34.2736 20.6597 34.2788H10.2535V10.7439H20.6597C21.6943 10.7448 22.5331 11.5835 22.5322 12.6182C22.5322 12.6191 22.5322 12.6191 22.5322 12.6199Z" fill="black"/><path d="M1.89689 10.7439H20.657C21.6926 10.7439 22.5331 11.5835 22.5331 12.6199V31.3801C22.5331 32.4156 21.6935 33.2561 20.657 33.2561H1.89689C0.860483 33.2561 0.020874 32.4156 0.020874 31.3801V12.6199C0.020874 11.5844 0.860483 10.7439 1.89689 10.7439Z" fill="url(#paint1_linear_118_26)"/><path d="M5.88356 18.6106C6.3459 17.6258 7.09184 16.8016 8.02598 16.2439C9.06067 15.6518 10.2389 15.3562 11.43 15.3905C12.5343 15.3665 13.624 15.6466 14.5804 16.2001C15.4793 16.7363 16.2038 17.5218 16.6644 18.4611C17.1672 19.4966 17.4172 20.6362 17.3949 21.7869C17.419 22.9891 17.162 24.1811 16.6429 25.2656C16.1711 26.2393 15.4235 27.0523 14.4945 27.6057C13.5011 28.1763 12.371 28.4634 11.2263 28.4367C10.0979 28.4642 8.98418 28.1806 8.00622 27.6177C7.09957 27.0806 6.36653 26.2943 5.89387 25.3524C5.38856 24.3323 5.13504 23.2048 5.15481 22.067C5.13418 20.8751 5.3834 19.6934 5.88356 18.6106ZM8.16692 24.1673C8.41356 24.7904 8.83122 25.3301 9.37262 25.7245C9.92348 26.1095 10.5835 26.308 11.2555 26.2917C11.9714 26.3201 12.6769 26.1147 13.2656 25.7065C13.8001 25.3129 14.2066 24.7715 14.4361 24.1493C14.693 23.4541 14.8193 22.7176 14.8099 21.9768C14.8176 21.2291 14.699 20.4849 14.4575 19.7768C14.2444 19.1374 13.8508 18.5737 13.324 18.1543C12.75 17.7272 12.047 17.5098 11.332 17.5407C10.6454 17.5226 9.97075 17.7229 9.40528 18.113C8.85528 18.5092 8.42903 19.0541 8.17723 19.684C7.61864 21.1269 7.6152 22.7262 8.16864 24.1708L8.16692 24.1673Z" fill="white"/><path d="M32.7648 7.67422H41.9738V16.8833H32.7648V7.67422Z" fill="#50D9FF"/></g><defs><linearGradient id="paint0_linear_118_26" x1="27.1371" y1="23.0233" x2="27.1371" y2="42.4652" gradientUnits="userSpaceOnUse"><stop stop-color="#35B8F1"/><stop offset="1" stop-color="#28A8EA"/></linearGradient><linearGradient id="paint1_linear_118_26" x1="3.9316" y1="9.27862" x2="18.6218" y2="34.7214" gradientUnits="userSpaceOnUse"><stop stop-color="#1784D9"/><stop offset="0.5" stop-color="#107AD5"/><stop offset="1" stop-color="#0A63C9"/></linearGradient><clipPath id="clip0_118_26"><rect width="44" height="44" fill="white" transform="translate(0.020874)"/></clipPath></defs></svg>
