<svg title="Android logo." width="42" height="48" viewBox="0 0 42 48" fill="none" xmlns="http://www.w3.org/2000/svg"><g clip-path="url(#clip0_118_16)"><path d="M33.7279 15.2343C33.7279 10.9375 31.2553 7.16401 27.5599 5.07808L29.6029 1.39448C29.6647 1.2872 29.7044 1.1686 29.7196 1.04571C29.7347 0.922817 29.7251 0.798133 29.6912 0.679033C29.6574 0.559933 29.5999 0.448839 29.5224 0.352324C29.4448 0.25581 29.3487 0.175837 29.2396 0.117138V0.117138C29.0251 -0.00178953 28.7722 -0.0307425 28.5364 0.036636C28.3006 0.104014 28.1011 0.262217 27.9818 0.476514L25.8881 4.25776C22.5989 2.96614 18.9429 2.96614 15.6537 4.25776L13.556 0.476514C13.4974 0.370026 13.4182 0.2762 13.3231 0.200438C13.228 0.124677 13.1188 0.0684765 13.0019 0.0350734C12.885 0.00167041 12.7626 -0.0082753 12.6419 0.00580901C12.5211 0.0198933 12.4043 0.0577294 12.2982 0.117138V0.117138C12.1917 0.175826 12.0979 0.255 12.0221 0.3501C11.9464 0.4452 11.8902 0.554348 11.8568 0.671258C11.8234 0.788169 11.8134 0.910532 11.8275 1.0313C11.8416 1.15207 11.8794 1.26886 11.9388 1.37495L13.9818 5.07808C10.2826 7.16401 7.83338 10.9375 7.83338 15.2343H33.7279ZM38.1029 15.2343C38.5516 15.2343 38.9958 15.3228 39.4103 15.4946C39.8248 15.6664 40.2013 15.9182 40.5184 16.2357C40.8355 16.5531 41.0869 16.9299 41.2582 17.3446C41.4296 17.7593 41.5175 18.2036 41.517 18.6523V30.7617C41.5175 31.2103 41.4296 31.6547 41.2582 32.0694C41.0869 32.484 40.8355 32.8609 40.5184 33.1783C40.2013 33.4957 39.8248 33.7476 39.4103 33.9194C38.9958 34.0912 38.5516 34.1796 38.1029 34.1796V34.1796C37.1964 34.1796 36.327 33.8195 35.686 33.1785C35.045 32.5375 34.6849 31.6682 34.6849 30.7617V18.6523C34.6849 17.7458 35.045 16.8764 35.686 16.2354C36.327 15.5944 37.1964 15.2343 38.1029 15.2343V15.2343ZM3.43885 15.2343C4.34535 15.2343 5.21473 15.5944 5.85572 16.2354C6.49671 16.8764 6.85682 17.7458 6.85682 18.6523V30.7617C6.85682 31.6682 6.49671 32.5375 5.85572 33.1785C5.21473 33.8195 4.34535 34.1796 3.43885 34.1796V34.1796C2.5337 34.1796 1.66551 33.8206 1.02474 33.1813C0.383971 32.542 0.0229519 31.6746 0.020883 30.7695V18.6601C0.0198555 18.2106 0.107506 17.7653 0.278815 17.3497C0.450123 16.9341 0.701726 16.5564 1.01922 16.2382C1.33671 15.92 1.71385 15.6675 2.12904 15.4952C2.54424 15.323 2.98934 15.2343 3.43885 15.2343V15.2343ZM19.3451 38.1757V44.582C19.3451 45.4885 18.985 46.3579 18.344 46.9989C17.703 47.6398 16.8336 48 15.9271 48V48C15.0223 47.9979 14.1554 47.6367 13.5167 46.9959C12.878 46.355 12.5198 45.4868 12.5209 44.582V38.1757H10.9584C10.1296 38.1757 9.33472 37.8465 8.74867 37.2604C8.16262 36.6744 7.83338 35.8795 7.83338 35.0507V16.2617H33.7279V35.0429C33.7279 35.8717 33.3987 36.6666 32.8126 37.2526C32.2266 37.8387 31.4317 38.1679 30.6029 38.1679H29.0404V44.5742C29.0404 45.4807 28.6803 46.3501 28.0393 46.991C27.3983 47.632 26.5289 47.9921 25.6224 47.9921V47.9921C24.7159 47.9921 23.8466 47.632 23.2056 46.991C22.5646 46.3501 22.2045 45.4807 22.2045 44.5742V38.1757H19.3451Z" fill="#A4C639"/><path d="M15.3568 9.41014C15.3568 9.29718 15.3233 9.18676 15.2604 9.09289C15.1976 8.99902 15.1083 8.92593 15.0038 8.88288C14.8994 8.83983 14.7845 8.82877 14.6738 8.85109C14.5631 8.87342 14.4614 8.92812 14.3818 9.00827C14.3022 9.08842 14.2482 9.19041 14.2267 9.30129C14.2051 9.41218 14.217 9.52697 14.2607 9.63111C14.3045 9.73525 14.3782 9.82405 14.4725 9.88624C14.5668 9.94844 14.6774 9.98123 14.7904 9.98045C14.8651 9.98046 14.9391 9.96568 15.0081 9.93697C15.077 9.90826 15.1397 9.86619 15.1923 9.81318C15.2449 9.76017 15.2866 9.69727 15.3148 9.6281C15.3431 9.55893 15.3573 9.48485 15.3568 9.41014V9.41014Z" fill="white"/><path d="M14.8646 9.41014C14.8691 9.39751 14.8691 9.38372 14.8646 9.37108V9.37108C14.8527 9.3625 14.8383 9.35788 14.8236 9.35788C14.8089 9.35788 14.7946 9.3625 14.7826 9.37108C14.7789 9.38384 14.7789 9.39738 14.7826 9.41014C14.782 9.41799 14.7831 9.42586 14.7859 9.43324C14.7886 9.44061 14.7929 9.44731 14.7985 9.45287C14.804 9.45843 14.8107 9.46273 14.8181 9.46547C14.8255 9.4682 14.8334 9.46932 14.8412 9.46874C14.854 9.47243 14.8675 9.47243 14.8803 9.46874C14.8857 9.45493 14.8857 9.43957 14.8803 9.42577L14.8646 9.41014ZM15.5717 8.62889C15.6722 8.72905 15.7519 8.84807 15.8064 8.97912C15.8608 9.11017 15.8888 9.25067 15.8888 9.39256C15.8888 9.53446 15.8608 9.67496 15.8064 9.80601C15.7519 9.93706 15.6722 10.0561 15.5717 10.1562C15.3682 10.3585 15.093 10.4721 14.8061 10.4721C14.5191 10.4721 14.2439 10.3585 14.0404 10.1562V10.1562C13.9341 10.0573 13.8487 9.93794 13.7895 9.80531C13.7303 9.67268 13.6983 9.52947 13.6956 9.38424C13.6929 9.239 13.7195 9.09471 13.7737 8.95996C13.828 8.82521 13.9088 8.70276 14.0114 8.59991C14.114 8.49706 14.2362 8.41593 14.3708 8.36133C14.5054 8.30674 14.6497 8.27981 14.7949 8.28215C14.9401 8.28449 15.0834 8.31605 15.2162 8.37495C15.349 8.43386 15.4686 8.51889 15.5678 8.62499L15.5717 8.62889Z" fill="white"/><path d="M27.3217 9.41016C27.3217 9.29736 27.2882 9.1871 27.2255 9.09331C27.1629 8.99952 27.0738 8.92642 26.9696 8.88326C26.8654 8.84009 26.7507 8.8288 26.6401 8.8508C26.5294 8.87281 26.4278 8.92713 26.3481 9.00688C26.2683 9.08664 26.214 9.18826 26.192 9.29889C26.17 9.40952 26.1813 9.5242 26.2244 9.62841C26.2676 9.73262 26.3407 9.82169 26.4345 9.88436C26.5283 9.94702 26.6385 9.98047 26.7513 9.98047C26.9026 9.98047 27.0477 9.92038 27.1546 9.81343C27.2616 9.70648 27.3217 9.56141 27.3217 9.41016Z" fill="white"/><path d="M26.8061 9.41014C26.8105 9.3975 26.8105 9.38372 26.8061 9.37108V9.37108C26.7941 9.36249 26.7798 9.35788 26.765 9.35788C26.7503 9.35788 26.736 9.36249 26.724 9.37108C26.7203 9.38384 26.7203 9.39738 26.724 9.41014C26.7234 9.41799 26.7246 9.42586 26.7273 9.43324C26.73 9.44061 26.7343 9.44731 26.7399 9.45287C26.7455 9.45843 26.7521 9.46273 26.7595 9.46547C26.7669 9.4682 26.7748 9.46932 26.7826 9.46874C26.7954 9.47242 26.8089 9.47242 26.8217 9.46874C26.8271 9.45493 26.8271 9.43957 26.8217 9.42577L26.8061 9.41014ZM27.5131 8.62889C27.7041 8.83423 27.808 9.10571 27.8027 9.38612C27.7975 9.66653 27.6836 9.93396 27.485 10.132C27.2865 10.3301 27.0187 10.4433 26.7383 10.4478C26.4579 10.4523 26.1867 10.3478 25.9818 10.1562V10.1562C25.8755 10.0573 25.7901 9.93794 25.7309 9.80531C25.6717 9.67268 25.6397 9.52947 25.637 9.38424C25.6343 9.239 25.6609 9.09471 25.7151 8.95996C25.7694 8.8252 25.8502 8.70276 25.9528 8.59991C26.0554 8.49706 26.1776 8.41593 26.3122 8.36133C26.4468 8.30674 26.5911 8.27981 26.7363 8.28215C26.8815 8.28449 27.0248 8.31605 27.1576 8.37495C27.2904 8.43386 27.41 8.51889 27.5092 8.62499L27.5131 8.62889Z" fill="white"/></g><defs><clipPath id="clip0_118_16"><rect width="41.4961" height="48" fill="white" transform="translate(0.020874)"/></clipPath></defs></svg>
