<svg width="72" height="28" viewBox="0 0 72 28" fill="none" xmlns="http://www.w3.org/2000/svg"><g clip-path="url(#clip0_118_22)">
<path d="M39.0717 6.1358C46.5211 6.1358 50.0989 12.0296 50.0989 17.0823C50.0989 22.135 46.5211 28.0288 39.0717 28.0288C31.6223 28.0288 28.0388 22.1407 28.0388 17.0823C28.0388 12.0239 31.6166 6.1358 39.0717 6.1358V6.1358ZM39.0717 22.2675C39.7359 22.2549 40.391 22.1102 40.9987 21.8416C41.6063 21.573 42.1544 21.1861 42.6108 20.7034C43.0673 20.2206 43.423 19.6518 43.6571 19.0301C43.8913 18.4084 43.9992 17.7462 43.9746 17.0823C44.0316 16.4046 43.9473 15.7225 43.7271 15.0791C43.5068 14.4356 43.1554 13.8449 42.6951 13.3443C42.2348 12.8436 41.6756 12.444 41.0529 12.1706C40.4302 11.8973 39.7575 11.7561 39.0775 11.7561C38.3974 11.7561 37.7247 11.8973 37.102 12.1706C36.4793 12.444 35.9201 12.8436 35.4598 13.3443C34.9995 13.8449 34.6481 14.4356 34.4279 15.0791C34.2076 15.7225 34.1234 16.4046 34.1803 17.0823C34.1565 17.7465 34.2652 18.4088 34.5 19.0305C34.7348 19.6523 35.091 20.2211 35.5479 20.7037C36.0048 21.1864 36.5532 21.5732 37.1612 21.8417C37.7692 22.1102 38.4245 22.2549 39.089 22.2675H39.0717ZM53.5614 0H59.7721V27.4296H53.5614V0ZM67.1869 19.3695C66.3711 19.3695 65.5735 19.6115 64.8952 20.0648C64.2168 20.518 63.6881 21.1623 63.3758 21.916C63.0636 22.6698 62.9819 23.4992 63.1411 24.2994C63.3003 25.0996 63.6931 25.8346 64.27 26.4115C64.847 26.9884 65.582 27.3813 66.3822 27.5405C67.1824 27.6997 68.0118 27.618 68.7655 27.3057C69.5193 26.9935 70.1636 26.4648 70.6168 25.7864C71.0701 25.1081 71.312 24.3105 71.312 23.4947C71.3105 22.4011 70.8754 21.3527 70.1021 20.5794C69.3289 19.8062 68.2805 19.3711 67.1869 19.3695V19.3695ZM16.8445 0H11.3194L0.516968 27.4296H7.8396L9.28569 23.4658H18.8092L20.1458 27.4296H27.5375L16.8445 0ZM11.21 17.9004L14.0906 8.33663L16.9713 17.9004H11.21Z" fill="currentColor"/></g><defs><clipPath id="clip0_118_22"><rect width="70.7951" height="28" fill="white" transform="translate(0.516968)"/></clipPath></defs></svg>
