<svg width="16" height="16" viewBox="0 0 16 16" fill="none" xmlns="http://www.w3.org/2000/svg"><path fill-rule="evenodd" clip-rule="evenodd" d="M8 0C3.58214 0 0 3.67143 0 8.20357C0 11.8286 2.29286 14.9 5.47143 15.9857C5.87143 16.0607 6.01786 15.8071 6.01786 15.5893C6.01786 15.3929 6.01071 14.8786 6.00714 14.1929C3.78214 14.6893 3.31071 13.0929 3.31071 13.0929C2.94643 12.1464 2.42143 11.8929 2.42143 11.8929C1.69643 11.3821 2.475 11.3929 2.475 11.3929C3.27857 11.45 3.7 12.2393 3.7 12.2393C4.41429 13.4929 5.57143 13.1321 6.02857 12.9214C6.1 12.3929 6.30714 12.0286 6.53571 11.825C4.76071 11.6179 2.89286 10.9143 2.89286 7.77143C2.89286 6.875 3.20357 6.14286 3.71429 5.57143C3.63214 5.36429 3.35714 4.52857 3.79286 3.4C3.79286 3.4 4.46429 3.17857 5.99286 4.23929C6.63214 4.05714 7.31429 3.96786 7.99643 3.96429C8.675 3.96786 9.36071 4.05714 10 4.23929C11.5286 3.17857 12.1964 3.4 12.1964 3.4C12.6321 4.52857 12.3571 5.36429 12.275 5.57143C12.7857 6.14643 13.0964 6.87857 13.0964 7.77143C13.0964 10.9214 11.225 11.6143 9.44286 11.8179C9.72857 12.0714 9.98571 12.5714 9.98571 13.3357C9.98571 14.4321 9.975 15.3179 9.975 15.5857C9.975 15.8036 10.1179 16.0607 10.525 15.9786C13.7107 14.8964 16 11.825 16 8.20357C16 3.67143 12.4179 0 8 0Z" fill="currentColor"/></svg>
