<svg width="16" height="16" viewBox="0 0 16 16" fill="none" xmlns="http://www.w3.org/2000/svg">
<g clip-path="url(#clip0_249_23)">
<path d="M15.4258 11.0881C14.8784 12.3881 13.998 13.5209 12.8734 14.3724C11.7488 15.2239 10.4197 15.764 9.01996 15.9384C7.6202 16.1128 6.19919 15.9153 4.90007 15.3657C3.60094 14.8162 2.46956 13.934 1.61986 12.808C0.770156 11.6821 0.232145 10.3521 0.0600032 8.95208C-0.112138 7.55204 0.0876692 6.13136 0.639303 4.83311C1.19094 3.53486 2.07492 2.40489 3.20222 1.55699C4.32953 0.709095 5.66035 0.173211 7.06066 0.00330877C7.15782 -0.00829322 7.25616 0.0107856 7.34193 0.0578727C7.42769 0.10496 7.49658 0.177696 7.53894 0.265893C7.58325 0.352461 7.59894 0.450852 7.58378 0.546908C7.56861 0.642964 7.52336 0.731732 7.45454 0.800438C6.8797 1.37072 6.42502 2.05044 6.11737 2.79944C5.80971 3.54845 5.65533 4.35152 5.66334 5.16121C5.6716 6.22547 5.9554 7.26945 6.48708 8.19142C7.01877 9.11339 7.78022 9.88192 8.69723 10.4221C9.61424 10.9623 10.6556 11.2558 11.7197 11.2739C12.7838 11.292 13.8345 11.0341 14.7694 10.5254C14.8562 10.4806 14.9544 10.4629 15.0514 10.4746C15.1484 10.4863 15.2396 10.5269 15.3133 10.5911C15.3761 10.6555 15.4198 10.736 15.4397 10.8237C15.4595 10.9114 15.4547 11.0029 15.4258 11.0881V11.0881Z" fill="#748FFC"/>
</g>
<defs>
<clipPath id="clip0_249_23">
<rect width="16" height="16" fill="white"/>
</clipPath>
</defs>
</svg>
