<svg width="708" height="400" viewBox="0 0 708 400" fill="none" xmlns="http://www.w3.org/2000/svg">
<g clip-path="url(#clip0_375_4)">
<rect width="708" height="400" fill="#1E293B"/>
<rect x="20" y="20" width="350" height="411" rx="4" fill="white"/>
<rect x="45" y="45" width="120" height="30" rx="3" fill="#9C36B5"/>
<rect x="45" y="90" width="300" height="8" rx="3" fill="#CBD5E1"/>
<rect x="45" y="102" width="300" height="8" rx="3" fill="#CBD5E1"/>
<rect x="45" y="114" width="300" height="8" rx="3" fill="#CBD5E1"/>
<rect x="45" y="126" width="99" height="8" rx="3" fill="#CBD5E1"/>
<rect x="45" y="149" width="300" height="8" rx="3" fill="#CBD5E1"/>
<rect x="45" y="161" width="300" height="8" rx="3" fill="#CBD5E1"/>
<rect x="45" y="173" width="300" height="8" rx="3" fill="#CBD5E1"/>
<rect x="45" y="185" width="300" height="8" rx="3" fill="#CBD5E1"/>
<rect x="45" y="197" width="144" height="8" rx="3" fill="#CBD5E1"/>
<rect x="82.5" y="220" width="60" height="60" rx="3" fill="#20C997"/>
<rect x="45" y="284" width="135" height="8" rx="3" fill="#CBD5E1"/>
<rect x="45" y="296" width="135" height="8" rx="3" fill="#CBD5E1"/>
<rect x="45" y="308" width="60" height="8" rx="3" fill="#CBD5E1"/>
<rect x="77.5" y="320" width="70" height="15" rx="3" fill="#9C36B5"/>
<rect x="247.5" y="220" width="60" height="60" rx="3" fill="#20C997"/>
<rect x="210" y="284" width="135" height="8" rx="3" fill="#CBD5E1"/>
<rect x="210" y="296" width="135" height="8" rx="3" fill="#CBD5E1"/>
<rect x="210" y="308" width="60" height="8" rx="3" fill="#CBD5E1"/>
<rect x="242.5" y="320" width="70" height="15" rx="3" fill="#9C36B5"/>
<rect x="45" y="350" width="300" height="8" rx="3" fill="#CBD5E1"/>
<rect x="45" y="362" width="300" height="8" rx="3" fill="#CBD5E1"/>
<rect x="45" y="374" width="300" height="8" rx="3" fill="#CBD5E1"/>
<rect x="45" y="386" width="300" height="8" rx="3" fill="#CBD5E1"/>
<rect x="45" y="398" width="144" height="8" rx="3" fill="#CBD5E1"/>
<path d="M409.3 201.725L396.325 180L387.85 181.225L401.55 201.425L387 218.425L395.475 219.575L409.3 201.725Z" fill="white"/>
<rect x="427" y="20" width="201" height="447" rx="4" fill="white"/>
<rect x="452" y="45" width="90" height="30" rx="3" fill="#9C36B5"/>
<rect x="452" y="90" width="151" height="8" rx="3" fill="#CBD5E1"/>
<rect x="452" y="102" width="151" height="8" rx="3" fill="#CBD5E1"/>
<rect x="452" y="114" width="151" height="8" rx="3" fill="#CBD5E1"/>
<rect x="452" y="126" width="151" height="8" rx="3" fill="#CBD5E1"/>
<rect x="452" y="138" width="71" height="8" rx="3" fill="#CBD5E1"/>
<rect x="452" y="161" width="151" height="8" rx="3" fill="#CBD5E1"/>
<rect x="452" y="173" width="151" height="8" rx="3" fill="#CBD5E1"/>
<rect x="452" y="185" width="151" height="8" rx="3" fill="#CBD5E1"/>
<rect x="452" y="197" width="151" height="8" rx="3" fill="#CBD5E1"/>
<rect x="452" y="209" width="151" height="8" rx="3" fill="#CBD5E1"/>
<rect x="452" y="221" width="151" height="8" rx="3" fill="#CBD5E1"/>
<rect x="452" y="233" width="98" height="8" rx="3" fill="#CBD5E1"/>
<rect x="452.25" y="256" width="60" height="60" rx="3" fill="#20C997"/>
<rect x="452" y="320" width="60.5" height="8" rx="3" fill="#CBD5E1"/>
<rect x="452" y="332" width="60.5" height="8" rx="3" fill="#CBD5E1"/>
<rect x="452" y="344" width="40" height="8" rx="3" fill="#CBD5E1"/>
<rect x="447.25" y="356" width="70" height="15" rx="3" fill="#9C36B5"/>
<rect x="542.75" y="256" width="60" height="60" rx="3" fill="#20C997"/>
<rect x="542.5" y="320" width="60.5" height="8" rx="3" fill="#CBD5E1"/>
<rect x="542.5" y="332" width="60.5" height="8" rx="3" fill="#CBD5E1"/>
<rect x="542.5" y="344" width="40" height="8" rx="3" fill="#CBD5E1"/>
<rect x="537.75" y="356" width="70" height="15" rx="3" fill="#9C36B5"/>
<rect x="452" y="386" width="151" height="8" rx="3" fill="#CBD5E1"/>
<rect x="452" y="398" width="151" height="8" rx="3" fill="#CBD5E1"/>
<rect width="60" height="398" transform="translate(648)" fill="white" fill-opacity="0.1"/>
<path fill-rule="evenodd" clip-rule="evenodd" d="M686.192 106.443C686.155 102.645 689.29 100.823 689.43 100.733C687.668 98.155 684.922 97.8006 683.944 97.7608C681.608 97.5249 679.386 99.1371 678.199 99.1371C677.015 99.1371 675.186 97.7962 673.249 97.8317C670.703 97.8693 668.356 99.3126 667.043 101.593C664.398 106.182 666.367 112.985 668.945 116.706C670.204 118.528 671.706 120.576 673.679 120.503C675.578 120.428 676.296 119.273 678.593 119.273C680.89 119.273 681.535 120.503 683.545 120.463C685.589 120.426 686.884 118.605 688.135 116.777C689.582 114.662 690.176 112.617 690.212 112.512C690.166 112.491 686.226 110.982 686.187 106.445L686.192 106.443H686.192ZM682.417 95.295C683.463 94.0255 684.17 92.2634 683.977 90.5045C682.469 90.566 680.641 91.5093 679.559 92.7771C678.587 93.9026 677.738 95.6963 677.965 97.4192C679.649 97.5504 681.368 96.5638 682.415 95.2972L682.417 95.295V95.295Z" fill="#CBD5E1"/>
<path d="M668 137.171L670.667 134.505L676 139.838L685.333 130.505L688 133.171L676 145.171L668 137.171Z" fill="#38D9A9"/>
<g clip-path="url(#clip1_375_4)">
<path d="M665.905 196.162H670.357V185.35L664 180.585V194.275C664 195.319 664.861 196.162 665.905 196.162Z" fill="#4285F4"/>
<path d="M685.64 196.162H690.093C691.157 196.162 691.998 195.301 691.998 194.257V180.585L685.64 185.35V196.162Z" fill="#34A853"/>
<path d="M685.64 177.085V185.35L692 180.585V178.038C692 175.675 689.306 174.335 687.417 175.748L685.64 177.085Z" fill="#FBBC04"/>
<path d="M670.357 185.35V177.085L678 182.821L685.64 177.085V185.35L678 191.067L670.357 185.35Z" fill="#EA4335"/>
<path d="M664 178.038V180.585L670.36 185.35V177.085L668.582 175.748C666.693 174.337 664 175.693 664 178.038Z" fill="#C5221F"/>
</g>
<path d="M668 212.829L670.667 210.162L676 215.495L685.333 206.162L688 208.829L676 220.829L668 212.829Z" fill="#38D9A9"/>
<g clip-path="url(#clip2_375_4)">
<path d="M694 267.573C694.002 267.323 693.872 267.09 693.659 266.959H693.655L693.642 266.952L682.554 260.388C682.505 260.356 682.456 260.326 682.405 260.299C681.977 260.079 681.468 260.079 681.04 260.299C680.989 260.326 680.939 260.356 680.891 260.388L669.802 266.951L669.789 266.959C669.45 267.169 669.347 267.615 669.557 267.954C669.619 268.054 669.705 268.137 669.807 268.196L680.895 274.76C680.943 274.792 680.992 274.822 681.044 274.849C681.472 275.069 681.98 275.069 682.409 274.849C682.46 274.822 682.509 274.793 682.557 274.76L693.645 268.196C693.867 268.068 694.002 267.829 694 267.573Z" fill="#0A2767"/>
<path d="M671.096 263.191H678.373V269.861H671.096V263.191ZM692.512 256.41V253.359C692.529 252.596 691.926 251.963 691.163 251.945H672.279C671.516 251.963 670.913 252.596 670.93 253.359V256.41L682.093 259.387L692.512 256.41Z" fill="#0364B8"/>
<path d="M670.93 256.41H678.372V263.107H670.93V256.41Z" fill="#0078D4"/>
<path d="M685.814 256.41H678.372V263.107L685.814 269.805H692.511V263.108L685.814 256.41Z" fill="#28A8EA"/>
<path d="M678.372 263.108H685.814V269.806H678.372V263.108Z" fill="#0078D4"/>
<path d="M678.372 269.806H685.814V276.503H678.372V269.806Z" fill="#0364B8"/>
<path d="M671.096 269.861H678.373V275.924H671.096V269.861Z" fill="#14447D"/>
<path d="M685.814 269.806H692.511V276.503H685.814V269.806Z" fill="#0078D4"/>
<path d="M693.659 268.156L693.645 268.163L682.557 274.399C682.509 274.429 682.459 274.458 682.408 274.483C682.22 274.572 682.015 274.623 681.807 274.631L681.201 274.277C681.15 274.251 681.101 274.223 681.052 274.191L669.815 267.778H669.81L669.442 267.573V280.198C669.448 281.04 670.136 281.718 670.977 281.713H692.489C692.501 281.713 692.512 281.706 692.526 281.706C692.704 281.695 692.879 281.658 693.047 281.598C693.119 281.567 693.189 281.531 693.256 281.489C693.306 281.461 693.392 281.399 693.392 281.399C693.773 281.117 693.999 280.671 694 280.197V267.573C694 267.814 693.869 268.037 693.659 268.156Z" fill="url(#paint0_linear_375_4)"/>
<path opacity="0.5" d="M693.404 267.523V268.297L681.81 276.28L669.806 267.784C669.806 267.779 669.803 267.776 669.799 267.776L668.697 267.114V266.556L669.151 266.548L670.111 267.099L670.134 267.106L670.215 267.158C670.215 267.158 681.497 273.596 681.527 273.61L681.959 273.863C681.997 273.848 682.034 273.833 682.079 273.819C682.101 273.804 693.279 267.516 693.279 267.516L693.404 267.523Z" fill="#0A2767"/>
<path d="M693.659 268.156L693.645 268.164L682.557 274.4C682.509 274.43 682.459 274.458 682.408 274.483C681.977 274.694 681.474 274.694 681.043 274.483C680.992 274.458 680.942 274.43 680.894 274.4L669.806 268.164L669.793 268.156C669.579 268.039 669.445 267.816 669.442 267.573V280.197C669.448 281.039 670.135 281.718 670.977 281.712H692.466C693.308 281.718 693.995 281.039 694 280.197V267.573C694 267.814 693.869 268.037 693.659 268.156Z" fill="#1490DF"/>
<path opacity="0.1" d="M682.718 274.308L682.552 274.401C682.504 274.432 682.455 274.46 682.403 274.486C682.22 274.576 682.021 274.628 681.818 274.641L686.037 279.629L693.396 281.402C693.598 281.25 693.758 281.05 693.863 280.82L682.718 274.308Z" fill="black"/>
<path opacity="0.05" d="M683.47 273.885L682.553 274.401C682.504 274.431 682.455 274.459 682.404 274.485C682.221 274.575 682.022 274.628 681.819 274.64L683.795 280.089L693.399 281.4C693.777 281.116 694 280.671 694 280.198V280.034L683.47 273.885Z" fill="black"/>
<path d="M670.998 281.712H692.464C692.794 281.714 693.116 281.61 693.383 281.415L681.2 274.279C681.149 274.253 681.099 274.224 681.051 274.193L669.814 267.78H669.809L669.442 267.573V280.154C669.441 281.014 670.138 281.712 670.998 281.712Z" fill="#28A8EA"/>
<path opacity="0.1" d="M679.861 259.262V275.136C679.859 275.693 679.521 276.193 679.005 276.401C678.845 276.47 678.673 276.506 678.499 276.506H669.442V258.643H670.93V257.899H678.498C679.251 257.901 679.859 258.511 679.861 259.262Z" fill="black"/>
<path opacity="0.2" d="M679.116 260.007V275.881C679.118 276.061 679.08 276.238 679.004 276.401C678.798 276.911 678.304 277.245 677.754 277.248H669.442V258.643H677.754C677.97 258.641 678.183 258.694 678.372 258.799C678.828 259.029 679.116 259.496 679.116 260.007Z" fill="black"/>
<path opacity="0.2" d="M679.116 260.007V274.392C679.113 275.143 678.506 275.753 677.754 275.759H669.442V258.643H677.754C677.97 258.641 678.183 258.694 678.372 258.799C678.828 259.029 679.116 259.496 679.116 260.007Z" fill="black"/>
<path opacity="0.2" d="M678.372 260.007V274.392C678.371 275.144 677.763 275.755 677.01 275.759H669.442V258.642H677.01C677.763 258.643 678.373 259.253 678.372 260.006C678.372 260.006 678.372 260.006 678.372 260.007Z" fill="black"/>
<path d="M663.364 258.642H677.008C677.761 258.642 678.372 259.253 678.372 260.007V273.651C678.372 274.404 677.762 275.015 677.008 275.015H663.364C662.611 275.015 662 274.404 662 273.651V260.007C662 259.254 662.611 258.642 663.364 258.642Z" fill="url(#paint1_linear_375_4)"/>
<path d="M666.264 264.364C666.6 263.647 667.143 263.048 667.822 262.642C668.574 262.212 669.431 261.997 670.298 262.022C671.101 262.004 671.893 262.208 672.589 262.611C673.243 263.001 673.769 263.572 674.104 264.255C674.47 265.008 674.652 265.837 674.636 266.674C674.653 267.548 674.466 268.415 674.089 269.204C673.746 269.912 673.202 270.503 672.526 270.906C671.804 271.321 670.982 271.529 670.149 271.51C669.329 271.53 668.519 271.324 667.808 270.914C667.148 270.524 666.615 269.952 666.271 269.267C665.904 268.525 665.719 267.705 665.734 266.877C665.719 266.011 665.9 265.151 666.264 264.364ZM667.924 268.405C668.104 268.858 668.408 269.251 668.801 269.537C669.202 269.817 669.682 269.962 670.171 269.95C670.691 269.971 671.204 269.821 671.633 269.524C672.021 269.238 672.317 268.844 672.484 268.392C672.671 267.886 672.763 267.351 672.756 266.812C672.761 266.268 672.675 265.727 672.499 265.212C672.344 264.747 672.058 264.337 671.675 264.032C671.258 263.721 670.746 263.563 670.226 263.586C669.727 263.572 669.236 263.718 668.825 264.002C668.425 264.29 668.115 264.686 667.932 265.144C667.526 266.194 667.523 267.357 667.926 268.407L667.924 268.405Z" fill="white"/>
<path d="M685.814 256.41H692.511V263.107H685.814V256.41Z" fill="#50D9FF"/>
</g>
<path d="M668 299.495L670.667 296.829L676 302.162L685.333 292.829L688 295.495L676 307.495L668 299.495Z" fill="#38D9A9"/>
</g>
<defs>
<linearGradient id="paint0_linear_375_4" x1="681.721" y1="267.573" x2="681.721" y2="281.713" gradientUnits="userSpaceOnUse">
<stop stop-color="#35B8F1"/>
<stop offset="1" stop-color="#28A8EA"/>
</linearGradient>
<linearGradient id="paint1_linear_375_4" x1="664.844" y1="257.577" x2="675.528" y2="276.081" gradientUnits="userSpaceOnUse">
<stop stop-color="#1784D9"/>
<stop offset="0.5" stop-color="#107AD5"/>
<stop offset="1" stop-color="#0A63C9"/>
</linearGradient>
<clipPath id="clip0_375_4">
<rect width="708" height="400" fill="white"/>
</clipPath>
<clipPath id="clip1_375_4">
<rect width="28" height="20.9909" fill="white" transform="translate(664 175.171)"/>
</clipPath>
<clipPath id="clip2_375_4">
<rect width="32" height="32" fill="white" transform="translate(662 250.829)"/>
</clipPath>
</defs>
</svg>
